<svg width="50" height="42" viewBox="0 0 50 42" fill="none" xmlns="http://www.w3.org/2000/svg">
<g id="Layer 4">
<g id="Group">
<g id="Group_2">
<path id="Vector" d="M25.7598 37.5398L33.4878 37.1164L33.173 36.4179C33.173 36.4179 29.608 35.8005 28.4605 32.628C27.313 29.4563 28.4605 27.2866 28.4605 27.2866H21.543C21.543 27.2866 22.6905 29.4563 21.543 32.628C20.3956 35.7996 16.8306 36.4179 16.8306 36.4179L16.5157 37.1164L24.2428 37.5398V37.6227L25.0022 37.5812L25.7616 37.6227V37.5398H25.7598Z" fill="url(#paint0_linear_1160_802)"/>
<g id="Vector_2" style="mix-blend-mode:multiply" opacity="0.45">
<path d="M33.1738 36.4188C33.1738 36.4188 29.6088 35.8014 28.4613 32.6289C27.3139 29.4572 28.4613 27.2875 28.4613 27.2875H21.5439C21.5439 27.2875 21.9073 27.9737 22.0202 29.1388C22.6032 29.2438 23.2735 29.5066 24.3724 29.7395C26.2846 30.1443 26.5677 32.8556 28.2885 34.5084C29.338 35.5174 31.5942 36.1357 33.195 36.4656L33.1738 36.4179V36.4188Z" fill="#8A1212"/>
</g>
<g id="Group_3">
<path id="Vector_3" style="mix-blend-mode:overlay" opacity="0.42" d="M22.5273 29.8294C22.5273 29.8294 22.1446 32.7091 21.2229 33.8116C20.3003 34.9141 21.0879 35.5888 24.3725 35.6567C27.657 35.7247 24.4174 29.0427 22.5273 29.8303V29.8294Z" fill="url(#paint1_linear_1160_802)"/>
</g>
<path id="Vector_4" d="M23.3934 30.3128C22.7839 30.0085 22.8201 32.4613 22.1789 33.6193C21.5377 34.7783 21.5606 35.1937 22.6966 34.7218C23.8326 34.2491 23.5742 30.4027 23.3943 30.3128H23.3934Z" fill="#FFF5CA"/>
</g>
<path id="Vector_5" d="M16.0624 39.7422H33.9386C34.8294 39.7422 34.6671 39.0137 34.6671 38.1228V37.9835C34.6671 37.0927 33.9386 36.3642 33.0477 36.3642H16.9532C16.0624 36.3642 15.3338 37.0927 15.3338 37.9835V38.1228C15.3338 39.0137 15.1716 39.7422 16.0624 39.7422Z" fill="url(#paint2_linear_1160_802)"/>
<g id="Group_4">
<path id="Vector_6" style="mix-blend-mode:overlay" opacity="0.42" d="M24.5224 36.5775C24.7102 36.9241 24.9898 37.7215 23.8882 37.8255C23.5381 37.8582 17.2415 38.0522 16.7485 37.6791C16.2555 37.306 16.3728 36.4567 17.3589 36.4567C18.3449 36.4567 24.3892 36.3323 24.5224 36.5784V36.5775Z" fill="url(#paint3_linear_1160_802)"/>
</g>
<g id="Vector_7" style="mix-blend-mode:multiply" opacity="0.45">
<path d="M29.2922 39.7422H33.9385C34.8293 39.7422 34.667 39.0137 34.667 38.1228V37.9835C34.667 37.0927 33.9385 36.3642 33.0477 36.3642H32.9216C33.0821 36.8219 33.0865 37.3705 32.3359 37.5866C30.9521 37.9853 27.7469 38.0532 27.7469 38.0532H15.3329V38.1228C15.3329 39.0137 15.1706 39.7422 16.0614 39.7422H29.2913H29.2922Z" fill="#8A1212"/>
</g>
<path id="Vector_8" d="M14.0373 41.731H35.9627C36.8535 41.731 36.6912 41.0025 36.6912 40.1117V39.9723C36.6912 39.0815 35.9627 38.353 35.0719 38.353H14.9281C14.0373 38.353 13.3088 39.0815 13.3088 39.9723V40.1117C13.3088 41.0025 13.1465 41.731 14.0373 41.731Z" fill="url(#paint4_linear_1160_802)"/>
<g id="Group_5">
<path id="Vector_9" style="mix-blend-mode:overlay" opacity="0.42" d="M24.226 38.9536C24.6335 39.4202 24.876 40.7917 23.4499 40.8322C23.0089 40.8446 15.0806 40.7811 14.5858 40.6073C13.7541 40.3145 14.0496 38.7481 15.2809 38.7481C16.5121 38.7481 23.7638 38.4253 24.2251 38.9536H24.226Z" fill="url(#paint5_linear_1160_802)"/>
</g>
<g id="Vector_10" style="mix-blend-mode:multiply" opacity="0.45">
<path d="M36.6894 39.9714C36.6894 39.0806 35.9609 38.3521 35.0701 38.3521H34.4395C34.7491 38.7481 34.6785 39.7421 34.077 40.3824C32.7805 41.761 13.7542 41.4823 13.2999 40.9531C13.322 41.4179 13.4534 41.731 14.0355 41.731H35.9609C36.8517 41.731 36.6894 41.0025 36.6894 40.1117V39.9723V39.9714Z" fill="#8A1212"/>
</g>
<path id="Vector_11" d="M18.658 36.5784C18.1412 36.604 17.836 37.3837 17.9154 37.6236C17.9948 37.8635 19.6705 37.8388 19.9739 37.254C20.2774 36.6692 19.5691 36.5343 18.658 36.5793V36.5784Z" fill="#FFF5CA"/>
<path id="Vector_12" d="M17.2821 38.7489C16.4592 38.7895 15.9742 40.0296 16.1003 40.4115C16.2264 40.7934 18.8927 40.7537 19.376 39.8232C19.8593 38.8927 18.7313 38.6775 17.2813 38.7489H17.2821Z" fill="#FFF5CA"/>
<g id="Group_6">
<g id="Vector_13" style="mix-blend-mode:multiply" opacity="0.45">
<path d="M36.6912 40.1108V39.9714C36.6912 39.0806 35.9626 38.3521 35.0718 38.3521H34.6696C34.6679 38.2771 34.667 38.2004 34.667 38.1228V37.9834C34.667 37.0926 33.9385 36.3641 33.0477 36.3641H32.9259C32.0986 36.1577 29.4262 35.296 28.4613 32.6298C27.3138 29.4581 28.4613 27.2884 28.4613 27.2884H25.0004C25.0004 27.2884 26.1611 29.9511 26.1611 32.1817C26.1611 35.5897 25.0004 36.3667 25.0004 36.3667C25.011 36.3667 25.0207 36.365 25.0312 36.365H28.9605C29.4253 36.365 29.8055 36.7451 29.8055 37.2099C29.8055 37.6747 29.4253 38.0549 28.9605 38.0549H25.0312C25.0207 38.0549 25.0101 38.054 25.0004 38.0531V38.3539H30.0074C30.8982 38.3539 31.6268 39.0824 31.6268 39.9732V40.1126C31.6268 41.0034 30.8982 41.7319 30.0074 41.7319H35.9626C36.8534 41.7319 36.6912 41.0034 36.6912 40.1126V40.1108Z" fill="#8A1212"/>
</g>
</g>
<g id="Group_7">
<path id="Vector_14" d="M15.3135 22.904C15.2747 22.8873 15.2359 22.874 15.1962 22.8679C12.8616 22.5327 8.77972 21.5387 6.66647 18.6114C4.58497 15.7281 4.44738 13.285 4.67758 12.2372H7.79189C8.70916 12.224 9.45709 11.4708 9.45709 10.55V7.31042C9.45709 6.38256 8.69769 5.62317 7.76984 5.62317C6.84198 5.62317 6.08259 6.38256 6.08259 7.31042V8.188H3.81058C2.74602 8.188 1.8014 8.84156 1.21841 9.98021C0.025955 12.3113 0.233223 16.6163 3.3837 20.9813C6.05966 24.6892 10.4784 26.1445 13.5098 26.716V27.8247C13.5098 28.7525 14.2692 29.5119 15.1971 29.5119C16.1249 29.5119 16.8843 28.7525 16.8843 27.8247V24.5851C16.8843 23.6969 16.1876 22.9649 15.3144 22.904H15.3135Z" fill="url(#paint6_linear_1160_802)"/>
<g id="Vector_15" style="mix-blend-mode:multiply" opacity="0.45">
<path d="M15.4149 22.9059C15.8118 23.2022 16.0702 23.6732 16.0702 24.2033V27.5778C16.0702 28.4686 15.3417 29.1971 14.4509 29.1971H14.3159C14.2648 29.1971 14.2145 29.1945 14.1642 29.1892C14.4341 29.3911 14.7675 29.512 15.1283 29.512H15.2632C16.154 29.512 16.8825 28.7834 16.8825 27.8926V24.5181C16.8825 23.6785 16.2343 22.9835 15.414 22.9059H15.4149Z" fill="#8A1212"/>
</g>
<g id="Group_8">
<path id="Vector_16" d="M4.60794 12.733C4.62205 12.5442 4.64586 12.3776 4.67673 12.2373H7.79104C8.70831 12.2241 9.45624 11.4709 9.45624 10.5501V9.80743C9.45624 10.7282 8.70919 11.4814 7.79104 11.4938L7.76899 11.4947H4.67673C4.6097 11.7981 4.57442 12.2188 4.60794 12.733Z" fill="url(#paint7_linear_1160_802)"/>
<g id="Vector_17" style="mix-blend-mode:multiply" opacity="0.45">
<path d="M13.5081 25.9734C10.4776 25.4019 6.05794 23.9466 3.38198 20.2387C1.46277 17.5795 0.637227 14.9432 0.55432 12.7612C0.459947 15.072 1.23963 18.0125 3.38198 20.9804C6.05794 24.6883 10.4767 26.1436 13.5081 26.7152V25.9725V25.9734Z" fill="#8A1212"/>
</g>
</g>
<g id="Group_9" style="mix-blend-mode:overlay">
<g id="Group_10">
<path id="Vector_18" style="mix-blend-mode:overlay" opacity="0.42" d="M1.91343 11.4778C2.49643 10.3391 3.44104 9.68557 4.5056 9.68557H6.77761V8.80799C6.77761 7.88013 7.537 7.12074 8.46486 7.12074C8.81413 7.12074 9.14047 7.22834 9.41035 7.41268V7.31037C9.41035 6.38251 8.65096 5.62312 7.72311 5.62312C6.79525 5.62312 6.03586 6.38251 6.03586 7.31037V8.18795H3.76385C2.69928 8.18795 1.75467 8.8415 1.17168 9.98015C0.129163 12.0176 0.156505 15.5658 2.28563 19.3425C0.911489 16.1426 1.01027 13.2435 1.91343 11.4778Z" fill="url(#paint8_linear_1160_802)"/>
</g>
<g id="Group_11">
<g id="Vector_19" style="mix-blend-mode:multiply" opacity="0.45">
<path d="M6.61973 18.6114C6.35954 18.2507 6.12934 17.897 5.92737 17.5522C6.24665 18.3415 6.70793 19.2032 7.36149 20.1091C9.47385 23.0364 13.5557 24.0304 15.8912 24.3655C15.9283 24.3708 15.9644 24.3823 16.0006 24.3973C16.3084 24.4052 16.5942 24.5014 16.8367 24.6592V24.5172C16.8367 23.6405 16.1302 22.9226 15.2588 22.8997C15.2227 22.8847 15.1865 22.8732 15.1495 22.8679C12.8148 22.5328 8.73298 21.5388 6.61973 18.6114Z" fill="#8A1212"/>
</g>
</g>
</g>
<path id="Vector_20" d="M6.18406 8.45798C6.18406 8.45798 4.09198 8.27276 3.02918 8.72787C1.96638 9.18386 1.3922 10.095 1.07204 11.5793C0.751879 13.0637 1.91699 9.85947 3.07945 9.41935C4.5956 8.84606 6.29784 9.38584 6.43278 9.01452C6.56773 8.6432 6.18406 8.4571 6.18406 8.4571V8.45798Z" fill="#FFF5CA"/>
<path id="Vector_21" d="M7.5167 5.99447C6.26163 6.12412 6.58885 6.88881 6.90901 7.1587C7.22917 7.42859 8.66417 5.87629 7.5167 5.99447Z" fill="#FFF5CA"/>
</g>
<g id="Group_12">
<path id="Vector_22" d="M48.7816 9.98015C48.1986 8.8415 47.2539 8.18795 46.1894 8.18795H43.9174V7.31037C43.9174 6.38251 43.158 5.62312 42.2301 5.62312C41.3023 5.62312 40.5429 6.38251 40.5429 7.31037V10.5499C40.5429 11.4698 41.2899 12.2239 42.2081 12.2363L42.2292 12.2372H45.3224C45.5526 13.285 45.415 15.7272 43.3335 18.6113C41.2211 21.5387 37.1393 22.5327 34.8038 22.8678C34.7641 22.874 34.7253 22.8872 34.6865 22.904C33.8124 22.9648 33.1165 23.6969 33.1165 24.5851V27.8246C33.1165 28.7525 33.8759 29.5119 34.8038 29.5119C35.7316 29.5119 36.491 28.7525 36.491 27.8246V26.7159C39.5215 26.1444 43.9412 24.6891 46.6171 20.9812C49.7676 16.6163 49.974 12.3113 48.7824 9.98015H48.7816Z" fill="url(#paint9_linear_1160_802)"/>
<g id="Vector_23" style="mix-blend-mode:multiply" opacity="0.45">
<path d="M34.5841 22.9059C34.1873 23.2022 33.9288 23.6732 33.9288 24.2033V27.5778C33.9288 28.4686 34.6574 29.1971 35.5482 29.1971H35.6831C35.7343 29.1971 35.7845 29.1945 35.8348 29.1892C35.5649 29.3911 35.2315 29.512 34.8708 29.512H34.7358C33.845 29.512 33.1165 28.7834 33.1165 27.8926V24.5181C33.1165 23.6785 33.7648 22.9835 34.585 22.9059H34.5841Z" fill="#8A1212"/>
</g>
<g id="Group_13" style="mix-blend-mode:multiply" opacity="0.45">
<path id="Vector_24" d="M45.3912 12.733C45.3771 12.5442 45.3533 12.3776 45.3224 12.2373H42.2081C41.2908 12.2241 40.5429 11.4709 40.5429 10.5501V9.80743C40.5429 10.7282 41.29 11.4814 42.2081 11.4938L42.2302 11.4947H45.3224C45.3895 11.7981 45.4247 12.2188 45.3912 12.733Z" fill="#8A1212"/>
<path id="Vector_25" d="M36.491 25.9734C39.5215 25.4019 43.9412 23.9466 46.6172 20.2387C48.5364 17.5795 49.3619 14.9432 49.4448 12.7612C49.5392 15.072 48.7595 18.0125 46.6172 20.9804C43.9412 24.6883 39.5224 26.1436 36.491 26.7152V25.9725V25.9734Z" fill="#8A1212"/>
</g>
<g id="Group_14" style="mix-blend-mode:overlay">
<g id="Group_15">
<path id="Vector_26" style="mix-blend-mode:overlay" opacity="0.42" d="M48.0865 11.4779C47.5035 10.3392 46.5589 9.68567 45.4944 9.68567H43.2223V8.80809C43.2223 7.88023 42.4629 7.12084 41.5351 7.12084C41.1858 7.12084 40.8595 7.22844 40.5896 7.41278V7.31047C40.5896 6.38261 41.349 5.62322 42.2768 5.62322C43.2047 5.62322 43.9641 6.38261 43.9641 7.31047V8.18805H46.2361C47.3007 8.18805 48.2453 8.84161 48.8283 9.98026C49.8708 12.0177 49.8434 15.5659 47.7143 19.3426C49.0885 16.1427 48.9897 13.2436 48.0865 11.4779Z" fill="url(#paint10_linear_1160_802)"/>
</g>
<g id="Group_16">
<g id="Vector_27" style="mix-blend-mode:multiply" opacity="0.45">
<path d="M43.3793 18.6115C43.6395 18.2508 43.8697 17.8971 44.0717 17.5522C43.7524 18.3416 43.2911 19.2033 42.6376 20.1091C40.5252 23.0364 36.4434 24.0304 34.1078 24.3656C34.0708 24.3709 34.0346 24.3824 33.9985 24.3974C33.6907 24.4053 33.4049 24.5014 33.1624 24.6593V24.5173C33.1624 23.6406 33.8688 22.9227 34.7402 22.8997C34.7764 22.8847 34.8126 22.8733 34.8496 22.868C37.1842 22.5328 41.2661 21.5388 43.3793 18.6115Z" fill="#8A1212"/>
</g>
</g>
</g>
<path id="Vector_28" d="M43.8159 8.45798C43.8159 8.45798 45.908 8.27276 46.9708 8.72787C48.0336 9.18386 48.6078 10.095 48.928 11.5793C49.2481 13.0637 48.083 9.85947 46.9205 9.41935C45.4044 8.84606 43.7022 9.38584 43.5672 9.01452C43.4323 8.6432 43.8159 8.4571 43.8159 8.4571V8.45798Z" fill="#FFF5CA"/>
<path id="Vector_29" d="M42.4824 5.99447C43.7374 6.12412 43.4102 6.88881 43.09 7.1587C42.7699 7.42859 41.3349 5.87629 42.4824 5.99447Z" fill="#FFF5CA"/>
</g>
<path id="Vector_30" d="M25.0004 28.6184C33.5981 28.6184 40.5676 20.1213 40.5676 9.63885V5.33033H9.43329V9.63885C9.43329 20.1213 16.4028 28.6184 25.0004 28.6184Z" fill="url(#paint11_linear_1160_802)"/>
<g id="Vector_31" style="mix-blend-mode:multiply" opacity="0.45">
<path d="M9.43329 5.33033V6.52719C13.8503 6.51131 29.1158 6.46457 34.7658 6.5316C39.5912 6.58893 39.3495 8.66073 39.3495 8.66073C39.3495 19.1432 32.3827 27.3025 23.7859 27.3025C20.1124 27.3025 16.7371 25.7502 14.0743 23.1554C16.8843 26.5325 20.7431 28.6176 25.0004 28.6176C33.5981 28.6176 40.5676 20.1204 40.5676 9.63797V5.33033H9.43329Z" fill="#8A1212"/>
</g>
<path id="Vector_32" d="M41.3623 0.33213H8.63866C7.74785 0.33213 7.91013 1.06066 7.91013 1.95147V2.09082C7.91013 2.98163 8.63866 5.62232 9.52947 5.62232H40.4715C41.3623 5.62232 42.0908 2.98163 42.0908 2.09082V1.95147C42.0908 1.06066 42.2531 0.33213 41.3623 0.33213Z" fill="url(#paint12_linear_1160_802)"/>
<g id="Vector_33" style="mix-blend-mode:multiply" opacity="0.45">
<path d="M41.3622 0.33213H41.1938C41.1902 0.467075 41.1858 0.608194 41.1858 0.754604V0.893959C41.1858 1.78477 40.4573 4.42545 39.5665 4.42545H8.6245C8.57158 4.42545 8.51954 4.41575 8.46838 4.39811C8.75327 5.07724 9.12458 5.6232 9.52942 5.6232H40.4714C41.3622 5.6232 42.0908 2.98251 42.0908 2.0917V1.95235C42.0908 1.06154 42.253 0.333012 41.3622 0.333012V0.33213Z" fill="#8A1212"/>
</g>
<g id="Group_17">
<path id="Vector_34" style="mix-blend-mode:overlay" opacity="0.42" d="M10.7775 7.1905C9.53123 7.55565 10.6963 15.3189 12.2513 18.3794C14.3434 22.4966 18.6395 27.0706 23.322 24.9256C30.4759 21.6481 29.0285 11.9691 27.814 8.93067C26.6807 6.09595 12.1613 6.78567 10.7775 7.1905Z" fill="url(#paint13_linear_1160_802)"/>
</g>
<g id="Group_18">
<path id="Vector_35" style="mix-blend-mode:overlay" opacity="0.42" d="M25.2853 8.41989C27.6826 9.01788 18.9791 25.5782 14.6326 19.8187C12.1189 16.4875 5.71216 3.5363 25.2853 8.41989Z" fill="url(#paint14_linear_1160_802)"/>
</g>
<g id="Group_19">
<path id="Vector_36" style="mix-blend-mode:overlay" opacity="0.42" d="M10.0816 4.3072C10.0816 4.3072 8.8159 4.8408 8.47898 3.494C8.14118 2.1472 8.47898 0.743954 9.69348 0.743954H39.929C39.929 0.743954 44.9229 1.38516 33.8212 1.28373C22.7196 1.1823 13.001 1.58714 12.1904 2.39769C11.3807 3.20736 10.7872 3.92441 10.0816 4.3072Z" fill="url(#paint15_linear_1160_802)"/>
</g>
<path id="Vector_37" d="M10.5102 1.04746C9.50301 0.482107 8.25852 2.26285 9.05231 3.44648C9.80906 4.57455 11.4116 1.55373 10.5102 1.04746Z" fill="#FFF5CA"/>
<path id="Vector_38" d="M14.3504 1.14969C12.761 1.14969 11.5377 1.58716 12.731 1.75562C13.9235 1.92408 19.1264 1.14969 14.3504 1.14969Z" fill="#FFF5CA"/>
<g id="Group_20">
<path id="Vector_39" style="mix-blend-mode:multiply" d="M41.3622 0.33213H25.0004C25.0004 0.33213 26.4601 0.767834 26.4601 2.31837C26.4601 3.51965 25.7554 4.84263 25.4378 5.378C25.4352 5.38329 25.4317 5.38859 25.429 5.393C25.4193 5.40887 25.4105 5.42298 25.4026 5.4371C25.3999 5.44151 25.3964 5.4468 25.3937 5.45209C25.3849 5.46708 25.377 5.48031 25.369 5.49266C25.3673 5.49531 25.3646 5.49972 25.3629 5.50236C25.3144 5.57998 25.2861 5.6232 25.2861 5.6232C25.2861 5.6232 30.3796 6.90738 30.3796 14.3981C30.3796 21.8889 25.2932 28.6052 25.2861 28.6141C33.7515 28.428 40.5675 20.0049 40.5675 9.6389V5.61173C41.4142 5.43269 42.0916 2.94988 42.0916 2.09082V1.95147C42.0916 1.06066 42.2539 0.33213 41.3631 0.33213H41.3622Z" fill="url(#paint16_linear_1160_802)"/>
</g>
</g>
</g>
<defs>
<linearGradient id="paint0_linear_1160_802" x1="16.513" y1="32.4551" x2="33.487" y2="32.4551" gradientUnits="userSpaceOnUse">
<stop offset="0.06" stop-color="#FD824C"/>
<stop offset="0.45" stop-color="#D36E4D"/>
<stop offset="1" stop-color="#632100"/>
</linearGradient>
<linearGradient id="paint1_linear_1160_802" x1="21.0544" y1="31.1171" x2="24.5639" y2="34.8065" gradientUnits="userSpaceOnUse">
<stop stop-color="white"/>
<stop offset="1" stop-color="white"/>
</linearGradient>
<linearGradient id="paint2_linear_1160_802" x1="24.3178" y1="33.8108" x2="25.4423" y2="41.5053" gradientUnits="userSpaceOnUse">
<stop offset="0.06" stop-color="#FD824C"/>
<stop offset="0.45" stop-color="#D36E4D"/>
<stop offset="1" stop-color="#632100"/>
</linearGradient>
<linearGradient id="paint3_linear_1160_802" x1="20.4097" y1="36.469" x2="21.1699" y2="39.4193" gradientUnits="userSpaceOnUse">
<stop stop-color="white"/>
<stop offset="1" stop-color="white"/>
</linearGradient>
<linearGradient id="paint4_linear_1160_802" x1="24.6203" y1="31.5855" x2="25.1601" y2="44.3179" gradientUnits="userSpaceOnUse">
<stop offset="0.06" stop-color="#FD824C"/>
<stop offset="0.45" stop-color="#D36E4D"/>
<stop offset="1" stop-color="#632100"/>
</linearGradient>
<linearGradient id="paint5_linear_1160_802" x1="19.0822" y1="38.8848" x2="20.1239" y2="42.9279" gradientUnits="userSpaceOnUse">
<stop stop-color="white"/>
<stop offset="1" stop-color="white"/>
</linearGradient>
<linearGradient id="paint6_linear_1160_802" x1="8.28404" y1="5.57731" x2="9.28245" y2="36.4699" gradientUnits="userSpaceOnUse">
<stop offset="0.06" stop-color="#FD824C"/>
<stop offset="0.45" stop-color="#D36E4D"/>
<stop offset="1" stop-color="#632100"/>
</linearGradient>
<linearGradient id="paint7_linear_1160_802" x1="4.59559" y1="11.2707" x2="9.45624" y2="11.2707" gradientUnits="userSpaceOnUse">
<stop offset="0.06" stop-color="#FD824C"/>
<stop offset="0.45" stop-color="#D36E4D"/>
<stop offset="1" stop-color="#632100"/>
</linearGradient>
<linearGradient id="paint8_linear_1160_802" x1="0.499599" y1="12.4824" x2="9.40947" y2="12.4824" gradientUnits="userSpaceOnUse">
<stop stop-color="white"/>
<stop offset="1" stop-color="white"/>
</linearGradient>
<linearGradient id="paint9_linear_1160_802" x1="40.7704" y1="4.52768" x2="41.7688" y2="35.4203" gradientUnits="userSpaceOnUse">
<stop offset="0.06" stop-color="#FD824C"/>
<stop offset="0.45" stop-color="#D36E4D"/>
<stop offset="1" stop-color="#632100"/>
</linearGradient>
<linearGradient id="paint10_linear_1160_802" x1="62.6156" y1="-25.018" x2="45.7422" y2="9.88147" gradientUnits="userSpaceOnUse">
<stop stop-color="white"/>
<stop offset="1" stop-color="white"/>
</linearGradient>
<linearGradient id="paint11_linear_1160_802" x1="9.43329" y1="16.9744" x2="40.5667" y2="16.9744" gradientUnits="userSpaceOnUse">
<stop offset="0.06" stop-color="#FD824C"/>
<stop offset="0.45" stop-color="#D36E4D"/>
<stop offset="1" stop-color="#632100"/>
</linearGradient>
<linearGradient id="paint12_linear_1160_802" x1="7.89779" y1="2.97722" x2="42.1023" y2="2.97722" gradientUnits="userSpaceOnUse">
<stop offset="0.06" stop-color="#FD824C"/>
<stop offset="0.45" stop-color="#D36E4D"/>
<stop offset="1" stop-color="#632100"/>
</linearGradient>
<linearGradient id="paint13_linear_1160_802" x1="10.2527" y1="16.1418" x2="28.8186" y2="16.1418" gradientUnits="userSpaceOnUse">
<stop stop-color="white"/>
<stop offset="1" stop-color="white"/>
</linearGradient>
<linearGradient id="paint14_linear_1160_802" x1="11.5968" y1="14.1828" x2="25.6954" y2="14.1828" gradientUnits="userSpaceOnUse">
<stop stop-color="white"/>
<stop offset="1" stop-color="white"/>
</linearGradient>
<linearGradient id="paint15_linear_1160_802" x1="8.35462" y1="2.57761" x2="41.0491" y2="2.57761" gradientUnits="userSpaceOnUse">
<stop stop-color="white"/>
<stop offset="1" stop-color="white"/>
</linearGradient>
<linearGradient id="paint16_linear_1160_802" x1="7.51666" y1="14.0012" x2="42.7804" y2="14.646" gradientUnits="userSpaceOnUse">
<stop offset="0.25" stop-color="#FDE403"/>
<stop offset="1" stop-color="#EA8D00"/>
</linearGradient>
</defs>
</svg>
