<svg width="50" height="42" viewBox="0 0 50 42" fill="none" xmlns="http://www.w3.org/2000/svg">
<g id="Group">
<g id="Layer 3">
<g id="Group_2">
<g id="Group_3">
<g id="Group_4">
<path id="Vector" d="M25.7597 37.6331L33.4876 37.2054L33.1724 36.4991C33.1724 36.4991 29.6073 35.8749 28.4596 32.6666C27.3118 29.4582 28.4596 27.2643 28.4596 27.2643H21.5422C21.5422 27.2643 22.69 29.4582 21.5422 32.6666C20.3945 35.8749 16.8294 36.4991 16.8294 36.4991L16.5142 37.2054L24.2421 37.6331V37.7171L25.0013 37.6751L25.7606 37.7171V37.6331H25.7597Z" fill="url(#paint0_radial_1160_264)"/>
<path id="Vector_2" style="mix-blend-mode:multiply" d="M33.1741 36.4991C33.1741 36.4991 29.609 35.8749 28.4613 32.6666C27.3136 29.4582 28.4613 27.2643 28.4613 27.2643H21.5439C21.5439 27.2643 21.9068 27.9581 22.0207 29.1368C22.6034 29.243 23.2744 29.5091 24.3736 29.744C26.2859 30.1538 26.5693 32.8952 28.29 34.5677C29.3398 35.5883 31.5955 36.2133 33.1962 36.5473L33.175 36.4991H33.1741Z" fill="url(#paint1_radial_1160_264)"/>
<g id="Group_5">
<path id="Vector_3" style="mix-blend-mode:overlay" d="M22.5276 29.8342C22.5276 29.8342 22.1453 32.7469 21.2227 33.8613C20.3001 34.9766 21.0876 35.6588 24.3719 35.7267C27.6562 35.7945 24.4169 29.0377 22.5276 29.8333V29.8342Z" fill="url(#paint2_linear_1160_264)"/>
</g>
<path id="Vector_4" d="M23.3937 30.3234C22.7845 30.0153 22.8198 32.4959 22.1788 33.6683C21.5379 34.8408 21.5599 35.2613 22.6962 34.7836C23.8325 34.3059 23.5738 30.4154 23.3937 30.3243V30.3234Z" fill="white"/>
</g>
<path id="Vector_5" d="M16.0622 39.8601H33.9378C34.8287 39.8601 34.6671 39.1225 34.6671 38.2215V38.0804C34.6671 37.1795 33.9378 36.4419 33.047 36.4419H16.953C16.0622 36.4419 15.3329 37.1795 15.3329 38.0804V38.2215C15.3329 39.1225 15.1714 39.8601 16.0622 39.8601Z" fill="url(#paint3_linear_1160_264)"/>
<g id="Group_6">
<path id="Vector_6" style="mix-blend-mode:overlay" d="M24.5227 36.6598C24.7108 37.0107 24.9907 37.817 23.8888 37.9224C23.5383 37.9554 17.2425 38.1519 16.749 37.7741C16.2555 37.3964 16.3729 36.5374 17.3599 36.5374C18.347 36.5374 24.3903 36.4115 24.5236 36.6598H24.5227Z" fill="url(#paint4_linear_1160_264)"/>
</g>
<path id="Vector_7" style="mix-blend-mode:multiply" d="M29.2921 39.8601H33.9378C34.8287 39.8601 34.6671 39.1225 34.6671 38.2215V38.0804C34.6671 37.1795 33.9378 36.4419 33.047 36.4419H32.9208C33.0814 36.9044 33.0859 37.4598 32.3354 37.6786C30.9519 38.0813 27.7462 38.151 27.7462 38.151H15.3329V38.2215C15.3329 39.1225 15.1714 39.8601 16.0622 39.8601H29.2921Z" fill="url(#paint5_radial_1160_264)"/>
<path id="Vector_8" d="M14.0377 41.8719H35.9631C36.854 41.8719 36.6924 41.1343 36.6924 40.2334V40.0923C36.6924 39.1913 35.9631 38.4537 35.0723 38.4537H14.9285C14.0377 38.4537 13.3084 39.1913 13.3084 40.0923V40.2334C13.3084 41.1343 13.1469 41.8719 14.0377 41.8719Z" fill="url(#paint6_linear_1160_264)"/>
<g id="Group_7">
<path id="Vector_9" style="mix-blend-mode:overlay" d="M24.2261 39.0627C24.6331 39.535 24.8768 40.9218 23.4501 40.9628C23.0095 40.9753 15.0813 40.9119 14.5868 40.7351C13.7552 40.4387 14.05 38.8546 15.2817 38.8546C16.5133 38.8546 23.7653 38.5278 24.2261 39.0618V39.0627Z" fill="url(#paint7_linear_1160_264)"/>
</g>
<path id="Vector_10" style="mix-blend-mode:multiply" d="M36.6898 40.0922C36.6898 39.1912 35.9605 38.4536 35.0697 38.4536H34.4393C34.7492 38.8537 34.6786 39.86 34.0765 40.5074C32.7804 41.9022 13.7535 41.62 13.2988 41.0842C13.3208 41.5539 13.4524 41.8709 14.0351 41.8709H35.9605C36.8513 41.8709 36.6898 41.1333 36.6898 40.2324V40.0913V40.0922Z" fill="url(#paint8_radial_1160_264)"/>
<path id="Vector_11" d="M18.6578 36.6607C18.1413 36.6866 17.8358 37.475 17.9153 37.717C17.9947 37.9599 19.6704 37.9349 19.9733 37.3429C20.277 36.7517 19.568 36.6151 18.6569 36.6607H18.6578Z" fill="white"/>
<path id="Vector_12" d="M17.2823 38.8563C16.4595 38.8974 15.9748 40.152 16.1011 40.5377C16.2273 40.9235 18.8936 40.8842 19.3774 39.9421C19.8604 39.001 18.7329 38.7831 17.2832 38.8554L17.2823 38.8563Z" fill="white"/>
<g id="Group_8">
<path id="Vector_13" d="M16.7896 27.0589C16.4144 27.0544 7.66684 26.8874 3.38311 20.8851C0.232998 16.4704 0.0255205 12.1164 1.21829 9.75902C1.80099 8.60713 2.74567 7.94635 3.81042 7.94635L7.79221 7.94635V12.0423H4.67829C4.44786 13.1013 4.58559 15.5721 6.66742 18.4893C8.78015 21.4494 12.8617 22.4558 15.1969 22.7942C16.2343 22.9451 16.7905 27.0589 16.7905 27.0589H16.7896Z" fill="url(#paint9_linear_1160_264)"/>
<path id="Vector_14" d="M7.77019 12.0412C6.84228 12.0412 6.08301 11.2733 6.08301 10.3348V7.05859C6.08301 6.1201 6.84228 5.35217 7.77019 5.35217C8.6981 5.35217 9.45737 6.1201 9.45737 7.05859V10.3348C9.45737 11.2733 8.6981 12.0412 7.77019 12.0412Z" fill="url(#paint10_linear_1160_264)"/>
<path id="Vector_15" d="M16.3279 22.8235H14.0642C13.7575 22.8235 13.5089 23.075 13.5089 23.3852V28.9509C13.5089 29.2611 13.7575 29.5126 14.0642 29.5126H16.3279C16.6346 29.5126 16.8833 29.2611 16.8833 28.9509V23.3852C16.8833 23.075 16.6346 22.8235 16.3279 22.8235Z" fill="url(#paint11_linear_1160_264)"/>
<path id="Vector_16" style="mix-blend-mode:multiply" d="M15.415 22.8316C15.8114 23.1307 16.071 23.6075 16.071 24.1433V27.5561C16.071 28.4571 15.3417 29.1947 14.4509 29.1947H14.3158C14.2646 29.1947 14.2143 29.192 14.1649 29.1866C14.435 29.3902 14.7679 29.5126 15.129 29.5126H15.264C16.1549 29.5126 16.8841 28.775 16.8841 27.874V24.4612C16.8841 23.612 16.2361 22.9084 15.4159 22.8307L15.415 22.8316Z" fill="url(#paint12_radial_1160_264)"/>
<g id="Group_9" style="mix-blend-mode:multiply">
<path id="Vector_17" d="M4.60866 12.543C4.62278 12.3519 4.64662 12.184 4.67752 12.0412H7.79144C8.70875 12.0278 9.45655 11.2652 9.45655 10.3348V9.5838C9.45655 10.5151 8.70963 11.2768 7.79144 11.2893L7.76937 11.2902H4.67752C4.61131 11.5965 4.57599 12.0224 4.60866 12.5421V12.543Z" fill="url(#paint13_radial_1160_264)"/>
<path id="Vector_18" d="M13.5081 25.9345C10.4772 25.3567 6.05838 23.8843 3.38237 20.1339C1.46299 17.4444 0.637502 14.7781 0.554511 12.5716C0.460043 14.9093 1.24051 17.8828 3.38237 20.8849C6.05838 24.6352 10.4772 26.1068 13.5081 26.6854V25.9345Z" fill="url(#paint14_radial_1160_264)"/>
</g>
<g id="Group_10" style="mix-blend-mode:overlay">
<g id="Group_11">
<path id="Vector_19" d="M1.91319 11.2733C2.49589 10.1214 3.44057 9.4606 4.50533 9.4606H6.77786V8.57301C6.77786 7.63453 7.53713 6.8666 8.46504 6.8666C8.81466 6.8666 9.14044 6.97554 9.4106 7.16217V7.05858C9.4106 6.1201 8.65133 5.35217 7.72342 5.35217C6.79551 5.35217 6.03624 6.1201 6.03624 7.05858V7.94617H3.76371C2.69895 7.94617 1.75427 8.60695 1.17157 9.75884C0.128893 11.8198 0.157145 15.4076 2.28577 19.2276C0.912007 15.9916 1.01001 13.0592 1.91319 11.2733Z" fill="url(#paint15_linear_1160_264)"/>
</g>
<g id="Group_12">
<path id="Vector_20" d="M6.61982 18.4883C6.35937 18.124 6.12982 17.7659 5.92676 17.4168C6.24548 18.2151 6.70722 19.0866 7.36144 20.0028C9.47417 22.9629 13.5557 23.9692 15.8909 24.3076C15.928 24.313 15.9642 24.3246 16.0004 24.3398C16.3077 24.3478 16.5937 24.4452 16.8365 24.6041V24.4612C16.8365 23.5745 16.1302 22.8486 15.2588 22.8254C15.2226 22.8102 15.1864 22.7986 15.1493 22.7932C12.8141 22.4539 8.73255 21.4484 6.61982 18.4883Z" fill="url(#paint16_linear_1160_264)"/>
</g>
</g>
<path id="Vector_21" d="M6.18366 8.21958C6.18366 8.21958 4.09124 8.03206 3.02825 8.49282C1.96527 8.95358 1.39139 9.8751 1.07091 11.377C0.750424 12.879 1.91582 9.63757 3.07858 9.19289C4.59536 8.61247 6.29667 9.15896 6.43175 8.78392C6.56683 8.40888 6.18278 8.22047 6.18278 8.22047L6.18366 8.21958Z" fill="white"/>
<path id="Vector_22" d="M7.51681 5.72713C6.26135 5.8575 6.5889 6.63168 6.90939 6.90492C7.22987 7.17816 8.66455 5.60837 7.51681 5.72713Z" fill="white"/>
</g>
<g id="Group_13">
<path id="Vector_23" d="M33.2104 27.0588C33.5856 27.0543 42.3331 26.8873 46.6169 20.885C49.767 16.4703 49.9745 12.1163 48.7817 9.7589C48.199 8.607 47.2543 7.94623 46.1896 7.94623L42.2078 7.94623V12.0422L45.3217 12.0422C45.5521 13.1012 45.4135 15.572 43.3326 18.4892C41.2198 21.4493 37.1383 22.4556 34.8031 22.7941C33.7657 22.945 33.2095 27.0588 33.2095 27.0588H33.2104Z" fill="url(#paint17_linear_1160_264)"/>
<path id="Vector_24" d="M41.098 12.0413H43.3617C43.6684 12.0413 43.917 11.7898 43.917 11.4796V5.91389C43.917 5.6037 43.6684 5.35223 43.3617 5.35223H41.098C40.7913 5.35223 40.5426 5.6037 40.5426 5.91389V11.4796C40.5426 11.7898 40.7913 12.0413 41.098 12.0413Z" fill="url(#paint18_linear_1160_264)"/>
<path id="Vector_25" d="M33.6713 29.5135H35.935C36.2417 29.5135 36.4903 29.262 36.4903 28.9518V23.3861C36.4903 23.0759 36.2417 22.8245 35.935 22.8245H33.6713C33.3646 22.8245 33.1159 23.0759 33.1159 23.3861V28.9518C33.1159 29.262 33.3646 29.5135 33.6713 29.5135Z" fill="url(#paint19_linear_1160_264)"/>
<path id="Vector_26" style="mix-blend-mode:multiply" d="M34.5842 22.8315C34.1877 23.1306 33.9282 23.6074 33.9282 24.1432V27.556C33.9282 28.457 34.6574 29.1946 35.5483 29.1946H35.6833C35.7346 29.1946 35.7849 29.1919 35.8343 29.1865C35.5642 29.3901 35.2313 29.5125 34.8702 29.5125H34.7351C33.8443 29.5125 33.1151 28.7749 33.1151 27.8739V24.4611C33.1151 23.6119 33.7631 22.9083 34.5833 22.8306L34.5842 22.8315Z" fill="url(#paint20_radial_1160_264)"/>
<g id="Group_14" style="mix-blend-mode:multiply">
<path id="Vector_27" d="M45.3915 12.543C45.3773 12.3519 45.3535 12.184 45.3226 12.0412H42.2087C41.2914 12.0278 40.5436 11.2652 40.5436 10.3348V9.5838C40.5436 10.5151 41.2905 11.2768 42.2087 11.2893L42.2308 11.2902H45.3226C45.3888 11.5965 45.4241 12.0224 45.3915 12.5421V12.543Z" fill="url(#paint21_radial_1160_264)"/>
<path id="Vector_28" d="M36.4912 25.9345C39.5221 25.3568 43.9409 23.8843 46.617 20.134C48.5363 17.4444 49.3618 14.7781 49.4448 12.5717C49.5393 14.9094 48.7588 17.8829 46.617 20.8849C43.9409 24.6353 39.5221 26.1069 36.4912 26.6855V25.9345Z" fill="url(#paint22_radial_1160_264)"/>
</g>
<g id="Group_15" style="mix-blend-mode:overlay">
<g id="Group_16">
<path id="Vector_29" d="M48.0868 11.2735C47.5041 10.1216 46.5594 9.46078 45.4947 9.46078H43.2222V8.5732C43.2222 7.63472 42.4629 6.86679 41.535 6.86679C41.1854 6.86679 40.8596 6.97572 40.5894 7.16235V7.05877C40.5894 6.12029 41.3487 5.35236 42.2766 5.35236C43.2045 5.35236 43.9638 6.12029 43.9638 7.05877V7.94635L46.2363 7.94635C47.3011 7.94635 48.2457 8.60713 48.8284 9.75902C49.8711 11.8199 49.8429 15.4078 47.7143 19.2278C49.088 15.9918 48.99 13.0593 48.0868 11.2735Z" fill="url(#paint23_linear_1160_264)"/>
</g>
<g id="Group_17">
<path id="Vector_30" d="M43.3802 18.4884C43.6406 18.1241 43.8702 17.766 44.0733 17.4169C43.7545 18.2152 43.2928 19.0867 42.6386 20.0028C40.5258 22.9629 36.4443 23.9693 34.1091 24.3077C34.072 24.3131 34.0358 24.3247 33.9996 24.3399C33.6924 24.3479 33.4063 24.4452 33.1635 24.6042V24.4613C33.1635 23.5746 33.8698 22.8486 34.7412 22.8254C34.7774 22.8102 34.8136 22.7986 34.8507 22.7933C37.1859 22.454 41.2675 21.4485 43.3802 18.4884Z" fill="url(#paint24_linear_1160_264)"/>
</g>
</g>
<path id="Vector_31" d="M43.8155 8.21946C43.8155 8.21946 45.9079 8.03194 46.9709 8.4927C48.0339 8.95346 48.6078 9.87497 48.9283 11.3769C49.2488 12.8788 48.0834 9.63745 46.9206 9.19276C45.4038 8.61235 43.7025 9.15883 43.5674 8.7838C43.4323 8.40876 43.8164 8.22035 43.8164 8.22035L43.8155 8.21946Z" fill="white"/>
<path id="Vector_32" d="M42.4832 5.72701C43.7387 5.85738 43.4111 6.63156 43.0907 6.9048C42.7702 7.17804 41.3364 5.60825 42.4832 5.72701Z" fill="white"/>
</g>
<path id="Vector_33" d="M25.0004 28.61C33.5979 28.61 40.5673 20.0154 40.5673 9.41438V5.05682L9.43347 5.05682V9.41438C9.43347 20.0163 16.4029 28.61 25.0004 28.61Z" fill="url(#paint25_radial_1160_264)"/>
<path id="Vector_34" style="mix-blend-mode:multiply" d="M9.43347 5.05682V6.26676C13.8505 6.25069 29.1164 6.20336 34.7659 6.27122C39.5917 6.32927 39.3498 8.425 39.3498 8.425C39.3498 19.0269 32.383 27.2795 23.7856 27.2795C20.1119 27.2795 16.7366 25.7097 14.0739 23.0853C16.8841 26.5017 20.7423 28.61 25.0004 28.61C33.5979 28.61 40.5673 20.0154 40.5673 9.41438V5.05682L9.43347 5.05682Z" fill="url(#paint26_radial_1160_264)"/>
<path id="Vector_35" d="M41.362 0.000976563L8.63805 0.000976563C7.74722 0.000976562 7.90967 0.738547 7.90967 1.63952V1.78061C7.90967 2.68159 8.63893 5.35238 9.52976 5.35238L40.472 5.35238C41.3629 5.35238 42.0921 2.68159 42.0921 1.78061V1.63952C42.0912 0.738547 42.2528 0.000976563 41.362 0.000976563Z" fill="url(#paint27_radial_1160_264)"/>
<path id="Vector_36" style="mix-blend-mode:multiply" d="M41.3619 0.000854492L41.1942 0.000854492C41.1907 0.137475 41.1863 0.280345 41.1863 0.427681V0.568766C41.1863 1.46974 40.457 4.14053 39.5662 4.14053L8.62478 4.14053C8.5718 4.14053 8.51971 4.13071 8.46851 4.11285C8.75368 4.79952 9.12449 5.35226 9.52973 5.35226L40.472 5.35226C41.3628 5.35226 42.0921 2.68147 42.0921 1.78049V1.6394C42.0921 0.738424 42.2545 0.000854492 41.3628 0.000854492H41.3619Z" fill="url(#paint28_radial_1160_264)"/>
<g id="Group_18">
<path id="Vector_37" style="mix-blend-mode:overlay" d="M10.7772 6.93723C9.53059 7.30601 10.696 15.1585 12.2516 18.2535C14.3441 22.4173 18.6401 27.0436 23.322 24.8746C30.476 21.56 29.029 11.7707 27.8141 8.69721C26.6805 5.82998 12.1607 6.52736 10.7772 6.93723Z" fill="url(#paint29_linear_1160_264)"/>
</g>
<g id="Group_19">
<path id="Vector_38" d="M25.2856 8.18104C27.6835 8.78646 18.9792 25.5345 14.6328 19.7098C12.1192 16.3407 5.71307 3.24129 25.2856 8.18104Z" fill="#FFFFD0"/>
</g>
<g id="Group_20">
<path id="Vector_39" style="mix-blend-mode:overlay" d="M10.0815 4.02097C10.0815 4.02097 8.81635 4.5603 8.4782 3.19857C8.14006 1.83683 8.47821 0.417053 9.69305 0.417053L39.9281 0.417053C39.9281 0.417053 44.9226 1.06533 33.8204 0.963534C22.7182 0.860845 12.9994 1.27071 12.1898 2.08953C11.3802 2.90836 10.7869 3.63432 10.0806 4.02097H10.0815Z" fill="url(#paint30_linear_1160_264)"/>
</g>
<path id="Vector_40" d="M10.5098 0.724213C9.5024 0.151837 8.25754 1.95379 9.05213 3.15034C9.80876 4.29152 11.4112 1.23587 10.5098 0.724213Z" fill="white"/>
<path id="Vector_41" d="M14.3503 0.827698C12.7611 0.827698 11.5383 1.2706 12.7302 1.44115C13.9229 1.6117 19.1257 0.827698 14.3503 0.827698Z" fill="white"/>
<g id="Group_21">
<path id="Vector_42" style="mix-blend-mode:multiply" d="M36.6915 40.2334V40.0923C36.6915 39.1914 35.9623 38.4538 35.0714 38.4538H34.6697C34.668 38.3779 34.6671 38.3011 34.6671 38.2216V38.0805C34.6671 37.1796 33.9378 36.442 33.047 36.442H32.9252C32.0979 36.233 29.3601 35.3848 28.4604 32.6649C27.5025 29.7681 28.1408 28.1957 28.1408 28.1957L26.4951 28.5627L25.9539 28.6091L25.2856 28.6046C25.2856 28.6046 26.1605 29.9566 26.1605 32.2121C26.1605 35.6589 25.0004 36.4447 25.0004 36.4447C25.011 36.4447 25.0207 36.4429 25.0313 36.4429H28.9601C29.4245 36.4429 29.8051 36.8277 29.8051 37.2974C29.8051 37.7671 29.4245 38.152 28.9601 38.152H25.0313C25.0207 38.152 25.0101 38.1511 25.0004 38.1502V38.4547H30.0081C30.8989 38.4547 31.6282 39.1923 31.6282 40.0932V40.2343C31.6282 41.1353 30.8989 41.8729 30.0081 41.8729H35.9631C36.854 41.8729 36.6924 41.1353 36.6924 40.2343L36.6915 40.2334Z" fill="url(#paint31_linear_1160_264)"/>
</g>
<g id="Group_22">
<path id="Vector_43" style="mix-blend-mode:multiply" d="M41.3619 0.000892942L25.0004 0.000892942C25.0004 0.000892942 26.4598 0.442006 26.4598 2.00912C26.4598 3.22352 25.7553 4.56204 25.4375 5.10316C25.4348 5.10852 25.4313 5.11388 25.4286 5.11834C25.4189 5.13442 25.411 5.1487 25.4021 5.16299C25.3995 5.16745 25.396 5.17281 25.3933 5.17817C25.3845 5.19335 25.3765 5.20674 25.3686 5.21924C25.3668 5.22192 25.3642 5.2255 25.3624 5.22907C25.3138 5.30765 25.2856 5.35051 25.2856 5.35051C25.2856 5.35051 30.3789 6.64974 30.3789 14.2255C30.3789 21.8012 25.2927 28.5947 25.2856 28.6036C33.7515 28.4161 40.5674 19.8965 40.5674 9.4125V5.34068C41.414 5.16031 42.0912 2.64847 42.0912 1.77963V1.63855C42.0912 0.73757 42.2528 0 41.3619 0V0.000892942Z" fill="url(#paint32_linear_1160_264)"/>
</g>
</g>
</g>
</g>
</g>
<defs>
<radialGradient id="paint0_radial_1160_264" cx="0" cy="0" r="1" gradientUnits="userSpaceOnUse" gradientTransform="translate(17.1163 26.5115) scale(26.7248 27.0294)">
<stop offset="0.25" stop-color="#FDE403"/>
<stop offset="1" stop-color="#EA8D00"/>
</radialGradient>
<radialGradient id="paint1_radial_1160_264" cx="0" cy="0" r="1" gradientUnits="userSpaceOnUse" gradientTransform="translate(27.235 28.2412) scale(9.52715 9.63574)">
<stop offset="0.25" stop-color="#FDE403"/>
<stop offset="1" stop-color="#EA8D00"/>
</radialGradient>
<linearGradient id="paint2_linear_1160_264" x1="21.0549" y1="31.137" x2="24.6061" y2="34.8275" gradientUnits="userSpaceOnUse">
<stop stop-color="white"/>
<stop offset="1" stop-color="white"/>
</linearGradient>
<linearGradient id="paint3_linear_1160_264" x1="24.318" y1="33.8613" x2="25.468" y2="41.6396" gradientUnits="userSpaceOnUse">
<stop offset="0.25" stop-color="#FDE403"/>
<stop offset="1" stop-color="#EA8D00"/>
</linearGradient>
<linearGradient id="paint4_linear_1160_264" x1="20.4094" y1="36.5499" x2="21.1859" y2="39.5299" gradientUnits="userSpaceOnUse">
<stop stop-color="white"/>
<stop offset="1" stop-color="white"/>
</linearGradient>
<radialGradient id="paint5_radial_1160_264" cx="0" cy="0" r="1" gradientUnits="userSpaceOnUse" gradientTransform="translate(25.0004 38.1519) scale(6.94738 7.02656)">
<stop offset="0.25" stop-color="#FDE403"/>
<stop offset="1" stop-color="#EA8D00"/>
</radialGradient>
<linearGradient id="paint6_linear_1160_264" x1="24.6208" y1="31.6102" x2="25.1726" y2="44.4877" gradientUnits="userSpaceOnUse">
<stop offset="0.25" stop-color="#FDE403"/>
<stop offset="1" stop-color="#EA8D00"/>
</linearGradient>
<linearGradient id="paint7_linear_1160_264" x1="19.0825" y1="38.993" x2="20.1457" y2="43.0769" gradientUnits="userSpaceOnUse">
<stop stop-color="white"/>
<stop offset="1" stop-color="white"/>
</linearGradient>
<radialGradient id="paint8_radial_1160_264" cx="0" cy="0" r="1" gradientUnits="userSpaceOnUse" gradientTransform="translate(25.0005 40.1627) scale(8.35999 8.45526)">
<stop offset="0.25" stop-color="#FDE403"/>
<stop offset="1" stop-color="#EA8D00"/>
</radialGradient>
<linearGradient id="paint9_linear_1160_264" x1="6.29131" y1="9.0152" x2="11.6019" y2="33.9737" gradientUnits="userSpaceOnUse">
<stop stop-color="#FDE403"/>
<stop offset="1" stop-color="#E57D00"/>
</linearGradient>
<linearGradient id="paint10_linear_1160_264" x1="7.77019" y1="8.69981" x2="13.0817" y2="33.6583" gradientUnits="userSpaceOnUse">
<stop stop-color="#FDE403"/>
<stop offset="1" stop-color="#E57D00"/>
</linearGradient>
<linearGradient id="paint11_linear_1160_264" x1="11.1755" y1="6.8372" x2="16.8037" y2="33.2872" gradientUnits="userSpaceOnUse">
<stop stop-color="#FDE403"/>
<stop offset="1" stop-color="#E57D00"/>
</linearGradient>
<radialGradient id="paint12_radial_1160_264" cx="0" cy="0" r="1" gradientUnits="userSpaceOnUse" gradientTransform="translate(15.5245 26.1721) scale(2.52592 2.55471)">
<stop offset="0.25" stop-color="#FDE403"/>
<stop offset="1" stop-color="#EA8D00"/>
</radialGradient>
<radialGradient id="paint13_radial_1160_264" cx="0" cy="0" r="1" gradientUnits="userSpaceOnUse" gradientTransform="translate(7.02598 11.0634) scale(2.0059 2.02877)">
<stop offset="0.25" stop-color="#FDE403"/>
<stop offset="1" stop-color="#EA8D00"/>
</radialGradient>
<radialGradient id="paint14_radial_1160_264" cx="0" cy="0" r="1" gradientUnits="userSpaceOnUse" gradientTransform="translate(7.02778 19.6285) scale(6.73372 6.81047)">
<stop offset="0.25" stop-color="#FDE403"/>
<stop offset="1" stop-color="#EA8D00"/>
</radialGradient>
<linearGradient id="paint15_linear_1160_264" x1="-12.6155" y1="-25.6392" x2="4.56941" y2="9.50709" gradientUnits="userSpaceOnUse">
<stop stop-color="white"/>
<stop offset="1" stop-color="white"/>
</linearGradient>
<linearGradient id="paint16_linear_1160_264" x1="-8.29025" y1="-20.3734" x2="10.5798" y2="18.2171" gradientUnits="userSpaceOnUse">
<stop stop-color="white"/>
<stop offset="1" stop-color="white"/>
</linearGradient>
<linearGradient id="paint17_linear_1160_264" x1="43.7087" y1="9.01508" x2="38.3981" y2="33.9736" gradientUnits="userSpaceOnUse">
<stop stop-color="#FDE403"/>
<stop offset="1" stop-color="#E57D00"/>
</linearGradient>
<linearGradient id="paint18_linear_1160_264" x1="42.2289" y1="8.69987" x2="36.58" y2="35.2516" gradientUnits="userSpaceOnUse">
<stop stop-color="#FDE403"/>
<stop offset="1" stop-color="#E57D00"/>
</linearGradient>
<linearGradient id="paint19_linear_1160_264" x1="38.8246" y1="6.83722" x2="33.1964" y2="33.2873" gradientUnits="userSpaceOnUse">
<stop stop-color="#FDE403"/>
<stop offset="1" stop-color="#E57D00"/>
</linearGradient>
<radialGradient id="paint20_radial_1160_264" cx="0" cy="0" r="1" gradientUnits="userSpaceOnUse" gradientTransform="translate(34.4756 26.172) rotate(180) scale(2.52592 2.55471)">
<stop offset="0.25" stop-color="#FDE403"/>
<stop offset="1" stop-color="#EA8D00"/>
</radialGradient>
<radialGradient id="paint21_radial_1160_264" cx="0" cy="0" r="1" gradientUnits="userSpaceOnUse" gradientTransform="translate(42.9741 11.0634) rotate(-180) scale(2.0059 2.02877)">
<stop offset="0.25" stop-color="#FDE403"/>
<stop offset="1" stop-color="#EA8D00"/>
</radialGradient>
<radialGradient id="paint22_radial_1160_264" cx="0" cy="0" r="1" gradientUnits="userSpaceOnUse" gradientTransform="translate(42.9724 19.6286) rotate(-180) scale(6.73372 6.81047)">
<stop offset="0.25" stop-color="#FDE403"/>
<stop offset="1" stop-color="#EA8D00"/>
</radialGradient>
<linearGradient id="paint23_linear_1160_264" x1="62.6155" y1="-25.639" x2="45.4297" y2="9.50726" gradientUnits="userSpaceOnUse">
<stop stop-color="white"/>
<stop offset="1" stop-color="white"/>
</linearGradient>
<linearGradient id="paint24_linear_1160_264" x1="58.2903" y1="-20.3733" x2="39.4203" y2="18.2172" gradientUnits="userSpaceOnUse">
<stop stop-color="white"/>
<stop offset="1" stop-color="white"/>
</linearGradient>
<radialGradient id="paint25_radial_1160_264" cx="0" cy="0" r="1" gradientUnits="userSpaceOnUse" gradientTransform="translate(24.642 7.53652) scale(24.6226 24.9033)">
<stop offset="0.25" stop-color="#FDE403"/>
<stop offset="1" stop-color="#EA8D00"/>
</radialGradient>
<radialGradient id="paint26_radial_1160_264" cx="0" cy="0" r="1" gradientUnits="userSpaceOnUse" gradientTransform="translate(17.2399 16.9794) scale(24.0593 24.3336)">
<stop offset="0.25" stop-color="#FDE403"/>
<stop offset="1" stop-color="#EA8D00"/>
</radialGradient>
<radialGradient id="paint27_radial_1160_264" cx="0" cy="0" r="1" gradientUnits="userSpaceOnUse" gradientTransform="translate(7.09478 2.28066) scale(41.8529 42.3299)">
<stop stop-color="#F3B000"/>
<stop offset="0.25" stop-color="#FDE403"/>
<stop offset="1" stop-color="#EA8D00"/>
</radialGradient>
<radialGradient id="paint28_radial_1160_264" cx="0" cy="0" r="1" gradientUnits="userSpaceOnUse" gradientTransform="translate(9.66304 -0.384003) scale(44.5218 45.0293)">
<stop offset="0.25" stop-color="#FDE403"/>
<stop offset="1" stop-color="#EA8D00"/>
</radialGradient>
<linearGradient id="paint29_linear_1160_264" x1="10.2528" y1="15.9908" x2="28.818" y2="15.9908" gradientUnits="userSpaceOnUse">
<stop stop-color="white"/>
<stop offset="1" stop-color="white"/>
</linearGradient>
<linearGradient id="paint30_linear_1160_264" x1="8.3546" y1="2.27169" x2="41.0485" y2="2.27169" gradientUnits="userSpaceOnUse">
<stop stop-color="white"/>
<stop offset="1" stop-color="white"/>
</linearGradient>
<linearGradient id="paint31_linear_1160_264" x1="13.1707" y1="34.7401" x2="37.4404" y2="35.1791" gradientUnits="userSpaceOnUse">
<stop offset="0.25" stop-color="#FDE403"/>
<stop offset="1" stop-color="#EA8D00"/>
</linearGradient>
<linearGradient id="paint32_linear_1160_264" x1="7.51677" y1="13.8254" x2="42.781" y2="14.4627" gradientUnits="userSpaceOnUse">
<stop offset="0.25" stop-color="#FDE403"/>
<stop offset="1" stop-color="#EA8D00"/>
</linearGradient>
</defs>
</svg>
