<svg width="50" height="42" viewBox="0 0 50 42" fill="none" xmlns="http://www.w3.org/2000/svg">
<g id="Layer 3">
<g id="Group">
<g id="Group_2">
<path id="Vector" d="M25.7597 37.5401L33.4875 37.1172L33.1723 36.4189C33.1723 36.4189 29.6073 35.8017 28.4595 32.6295C27.3118 29.4574 28.4595 27.2881 28.4595 27.2881H21.5422C21.5422 27.2881 22.6899 29.4574 21.5422 32.6295C20.3944 35.8017 16.8293 36.4189 16.8293 36.4189L16.5142 37.1172L24.242 37.5401V37.6231L25.0013 37.5816L25.7606 37.6231V37.5401H25.7597Z" fill="url(#paint0_radial_1160_1653)"/>
<path id="Vector_2" style="mix-blend-mode:multiply" d="M33.1741 36.4188C33.1741 36.4188 29.609 35.8017 28.4613 32.6295C27.3136 29.4573 28.4613 27.2881 28.4613 27.2881H21.5439C21.5439 27.2881 21.9068 27.9741 22.0207 29.1395C22.6034 29.2445 23.2744 29.5076 24.3736 29.7398C26.2859 30.1451 26.5693 32.8555 28.29 34.5092C29.3398 35.5183 31.5955 36.1372 33.1962 36.4665L33.175 36.4188H33.1741Z" fill="url(#paint1_radial_1160_1653)"/>
<g id="Group_3">
<path id="Vector_3" style="mix-blend-mode:overlay" d="M22.5274 29.83C22.5274 29.83 22.1452 32.7099 21.2226 33.8117C20.2999 34.9145 21.0875 35.589 24.3718 35.6561C27.6561 35.7232 24.4168 29.0424 22.5274 29.8291V29.83Z" fill="url(#paint2_linear_1160_1653)"/>
</g>
<path id="Vector_4" d="M23.3935 30.3137C22.7844 30.0092 22.8197 32.4618 22.1787 33.621C21.5377 34.7794 21.5598 35.1961 22.6961 34.7237C23.8323 34.2514 23.5737 30.4047 23.3935 30.3146V30.3137Z" fill="white"/>
</g>
<path id="Vector_5" d="M16.0622 39.7429H33.9378C34.8287 39.7429 34.6671 39.0137 34.6671 38.1229V37.9834C34.6671 37.0925 33.9378 36.3633 33.047 36.3633H16.953C16.0622 36.3633 15.3329 37.0925 15.3329 37.9834V38.1229C15.3329 39.0137 15.1714 39.7429 16.0622 39.7429Z" fill="url(#paint3_linear_1160_1653)"/>
<g id="Group_4">
<path id="Vector_6" style="mix-blend-mode:overlay" d="M24.5219 36.5787C24.7099 36.9256 24.9898 37.7229 23.888 37.827C23.5375 37.8597 17.2417 38.0539 16.7481 37.6805C16.2546 37.307 16.372 36.4577 17.3591 36.4577C18.3461 36.4577 24.3895 36.3332 24.5228 36.5787H24.5219Z" fill="url(#paint4_linear_1160_1653)"/>
</g>
<path id="Vector_7" style="mix-blend-mode:multiply" d="M29.2921 39.7429H33.9378C34.8287 39.7429 34.6671 39.0137 34.6671 38.1229V37.9834C34.6671 37.0925 33.9378 36.3633 33.047 36.3633H32.9208C33.0814 36.8206 33.0859 37.3698 32.3354 37.5861C30.9519 37.9842 27.7462 38.0531 27.7462 38.0531H15.3329V38.1229C15.3329 39.0137 15.1714 39.7429 16.0622 39.7429H29.2921Z" fill="url(#paint5_radial_1160_1653)"/>
<path id="Vector_8" d="M14.0378 41.7312H35.9632C36.854 41.7312 36.6924 41.0019 36.6924 40.1111V39.9716C36.6924 39.0808 35.9632 38.3515 35.0724 38.3515H14.9286C14.0378 38.3515 13.3085 39.0808 13.3085 39.9716V40.1111C13.3085 41.0019 13.1469 41.7312 14.0378 41.7312Z" fill="url(#paint6_linear_1160_1653)"/>
<g id="Group_5">
<path id="Vector_9" style="mix-blend-mode:overlay" d="M24.2262 38.9545C24.6332 39.4216 24.8769 40.7927 23.4502 40.8333C23.0096 40.8457 15.0813 40.783 14.586 40.6082C13.7544 40.315 14.0493 38.7488 15.2809 38.7488C16.5125 38.7488 23.7645 38.4257 24.2253 38.9536L24.2262 38.9545Z" fill="url(#paint7_linear_1160_1653)"/>
</g>
<path id="Vector_10" style="mix-blend-mode:multiply" d="M36.6898 39.9725C36.6898 39.0817 35.9605 38.3524 35.0697 38.3524H34.4393C34.7492 38.7479 34.6786 39.743 34.0764 40.383C32.7804 41.7621 13.7534 41.4831 13.2988 40.9534C13.3208 41.4178 13.4524 41.7312 14.0351 41.7312H35.9605C36.8513 41.7312 36.6898 41.0019 36.6898 40.1111V39.9716V39.9725Z" fill="url(#paint8_radial_1160_1653)"/>
<path id="Vector_11" d="M18.6578 36.5787C18.1413 36.6043 17.8358 37.3839 17.9153 37.6231C17.9947 37.8624 19.6704 37.8386 19.9741 37.2532C20.2779 36.6687 19.5689 36.5337 18.6578 36.5787Z" fill="white"/>
<path id="Vector_12" d="M17.2823 38.7497C16.4594 38.7903 15.9747 40.0308 16.101 40.4122C16.2272 40.7936 18.8935 40.7547 19.3774 39.8233C19.8612 38.8919 18.7329 38.6773 17.2832 38.7488L17.2823 38.7497Z" fill="white"/>
<g id="Group_6">
<path id="Vector_13" d="M16.7896 27.0851C16.4144 27.0807 7.66684 26.9156 3.38311 20.9809C0.232997 16.6159 0.0255206 12.311 1.21829 9.98018C1.80099 8.84126 2.74567 8.18793 3.81042 8.18793H7.79221V12.2377H4.67741C4.44698 13.2848 4.58471 15.7277 6.66654 18.6121C8.77927 21.5388 12.8608 22.5338 15.196 22.8685C16.2334 23.0177 16.7896 27.0851 16.7896 27.0851Z" fill="url(#paint9_linear_1160_1653)"/>
<path id="Vector_14" d="M7.76927 12.2377C6.84137 12.2377 6.08209 11.4784 6.08209 10.5505V7.31124C6.08209 6.38333 6.84137 5.62405 7.76927 5.62405C8.69718 5.62405 9.45646 6.38333 9.45646 7.31124V10.5505C9.45646 11.4784 8.69718 12.2377 7.76927 12.2377Z" fill="url(#paint10_linear_1160_1653)"/>
<path id="Vector_15" d="M16.3279 22.8985H14.0642C13.7575 22.8985 13.5089 23.1471 13.5089 23.4538V28.9568C13.5089 29.2635 13.7575 29.5121 14.0642 29.5121H16.3279C16.6346 29.5121 16.8833 29.2635 16.8833 28.9568V23.4538C16.8833 23.1471 16.6346 22.8985 16.3279 22.8985Z" fill="url(#paint11_linear_1160_1653)"/>
<path id="Vector_16" style="mix-blend-mode:multiply" d="M15.415 22.9055C15.8114 23.2012 16.071 23.6727 16.071 24.2024V27.5768C16.071 28.4676 15.3417 29.1969 14.4509 29.1969H14.3158C14.2646 29.1969 14.2143 29.1942 14.1649 29.1889C14.435 29.3902 14.7679 29.5112 15.129 29.5112H15.264C16.1549 29.5112 16.8841 28.7819 16.8841 27.8911V24.5167C16.8841 23.6771 16.2361 22.9814 15.4159 22.9046L15.415 22.9055Z" fill="url(#paint12_radial_1160_1653)"/>
<g id="Group_7" style="mix-blend-mode:multiply">
<path id="Vector_17" d="M4.60857 12.733C4.62269 12.5441 4.64653 12.3781 4.67743 12.2368H7.79135C8.70866 12.2236 9.45646 11.4696 9.45646 10.5497V9.80716C9.45646 10.728 8.70954 11.4811 7.79135 11.4935L7.76927 11.4943H4.67655C4.61033 11.7972 4.57502 12.2183 4.60768 12.7321L4.60857 12.733Z" fill="url(#paint13_radial_1160_1653)"/>
<path id="Vector_18" d="M13.508 25.9735C10.4771 25.4023 6.05826 23.9464 3.38225 20.2383C1.46287 17.5791 0.63738 14.9428 0.554389 12.7612C0.459921 15.0726 1.24039 18.0126 3.38225 20.9808C6.05826 24.6889 10.4771 26.1439 13.508 26.716V25.9735Z" fill="url(#paint14_radial_1160_1653)"/>
</g>
<g id="Group_8" style="mix-blend-mode:overlay">
<g id="Group_9">
<path id="Vector_19" d="M1.91313 11.4784C2.49583 10.3395 3.44051 9.6862 4.50526 9.6862H6.7778V8.80862C6.7778 7.88071 7.53707 7.12144 8.46498 7.12144C8.8146 7.12144 9.14038 7.22915 9.41054 7.41367V7.31125C9.41054 6.38334 8.65127 5.62407 7.72336 5.62407C6.79545 5.62407 6.03618 6.38334 6.03618 7.31125V8.18883H3.76365C2.69889 8.18883 1.75421 8.84216 1.17151 9.98108C0.128832 12.0188 0.157084 15.5662 2.28571 19.3431C0.911946 16.1436 1.00995 13.2442 1.91313 11.4784Z" fill="url(#paint15_linear_1160_1653)"/>
</g>
<g id="Group_10">
<path id="Vector_20" d="M6.61976 18.6112C6.35931 18.251 6.12976 17.8969 5.9267 17.5517C6.24542 18.341 6.70716 19.2027 7.36138 20.1085C9.47411 23.0353 13.5557 24.0303 15.8909 24.3649C15.928 24.3702 15.9642 24.3817 16.0004 24.3967C16.3076 24.4046 16.5936 24.5009 16.8364 24.658V24.5168C16.8364 23.6401 16.1301 22.9223 15.2587 22.8993C15.2225 22.8843 15.1863 22.8728 15.1493 22.8675C12.814 22.5321 8.73249 21.5379 6.61976 18.6112Z" fill="url(#paint16_linear_1160_1653)"/>
</g>
</g>
<path id="Vector_21" d="M6.1836 8.45806C6.1836 8.45806 4.09118 8.27266 3.02819 8.72822C1.9652 9.18379 1.39133 10.0949 1.07085 11.5799C0.750363 13.0649 1.91576 9.86008 3.07852 9.4204C4.5953 8.84653 6.29661 9.38685 6.43169 9.01604C6.56677 8.64523 6.18272 8.45895 6.18272 8.45895L6.1836 8.45806Z" fill="white"/>
<path id="Vector_22" d="M7.51675 5.99485C6.26129 6.12375 6.58884 6.88921 6.90932 7.15937C7.22981 7.42953 8.66449 5.87743 7.51675 5.99485Z" fill="white"/>
</g>
<g id="Group_11">
<path id="Vector_23" d="M33.2103 27.0851C33.5855 27.0807 42.3331 26.9156 46.6168 20.9809C49.7669 16.6159 49.9744 12.311 48.7816 9.98018C48.1989 8.84126 47.2543 8.18793 46.1895 8.18793H42.2077V12.2377H45.3216C45.5521 13.2848 45.4135 15.7277 43.3325 18.6121C41.2198 21.5388 37.1382 22.5338 34.803 22.8685C33.7656 23.0177 33.2094 27.0851 33.2094 27.0851H33.2103Z" fill="url(#paint17_linear_1160_1653)"/>
<path id="Vector_24" d="M41.098 12.2377H43.3617C43.6684 12.2377 43.917 11.989 43.917 11.6823V6.17935C43.917 5.87265 43.6684 5.62401 43.3617 5.62401H41.098C40.7913 5.62401 40.5426 5.87265 40.5426 6.17935V11.6823C40.5426 11.989 40.7913 12.2377 41.098 12.2377Z" fill="url(#paint18_linear_1160_1653)"/>
<path id="Vector_25" d="M33.6711 29.5121H35.9348C36.2415 29.5121 36.4902 29.2635 36.4902 28.9567V23.4538C36.4902 23.1471 36.2415 22.8984 35.9348 22.8984H33.6711C33.3644 22.8984 33.1158 23.1471 33.1158 23.4538V28.9567C33.1158 29.2635 33.3644 29.5121 33.6711 29.5121Z" fill="url(#paint19_linear_1160_1653)"/>
<path id="Vector_26" style="mix-blend-mode:multiply" d="M34.5841 22.9055C34.1877 23.2012 33.9281 23.6727 33.9281 24.2024V27.5768C33.9281 28.4676 34.6574 29.1969 35.5482 29.1969H35.6833C35.7345 29.1969 35.7848 29.1942 35.8343 29.1889C35.5641 29.3902 35.2312 29.5112 34.8702 29.5112H34.7351C33.8442 29.5112 33.115 28.7819 33.115 27.8911V24.5167C33.115 23.6771 33.763 22.9814 34.5832 22.9046L34.5841 22.9055Z" fill="url(#paint20_radial_1160_1653)"/>
<g id="Group_12" style="mix-blend-mode:multiply">
<path id="Vector_27" d="M45.3913 12.733C45.3772 12.5441 45.3534 12.3781 45.3225 12.2368H42.2086C41.2913 12.2236 40.5435 11.4696 40.5435 10.5497V9.80716C40.5435 10.728 41.2904 11.4811 42.2086 11.4935L42.2306 11.4943H45.3225C45.3887 11.7972 45.424 12.2183 45.3913 12.7321V12.733Z" fill="url(#paint21_radial_1160_1653)"/>
<path id="Vector_28" d="M36.4911 25.9735C39.522 25.4023 43.9408 23.9464 46.6168 20.2383C48.5362 17.5791 49.3617 14.9428 49.4447 12.7612C49.5392 15.0726 48.7587 18.0126 46.6168 20.9808C43.9408 24.6889 39.522 26.1439 36.4911 26.716V25.9735Z" fill="url(#paint22_radial_1160_1653)"/>
</g>
<g id="Group_13" style="mix-blend-mode:overlay">
<g id="Group_14">
<path id="Vector_29" d="M48.0869 11.4784C47.5042 10.3395 46.5595 9.68617 45.4948 9.68617H43.2222V8.80859C43.2222 7.88068 42.4629 7.1214 41.535 7.1214C41.1854 7.1214 40.8596 7.22912 40.5895 7.41364V7.31122C40.5895 6.38331 41.3488 5.62404 42.2767 5.62404C43.2046 5.62404 43.9638 6.38331 43.9638 7.31122V8.1888H46.2364C47.3011 8.1888 48.2458 8.84213 48.8285 9.98105C49.8712 12.0187 49.8429 15.5662 47.7143 19.3431C49.0881 16.1436 48.9901 13.2442 48.0869 11.4784Z" fill="url(#paint23_linear_1160_1653)"/>
</g>
<g id="Group_15">
<path id="Vector_30" d="M43.3793 18.6112C43.6398 18.2509 43.8693 17.8969 44.0724 17.5517C43.7537 18.341 43.2919 19.2027 42.6377 20.1085C40.525 23.0353 36.4434 24.0303 34.1082 24.3649C34.0711 24.3702 34.0349 24.3817 33.9987 24.3967C33.6915 24.4046 33.4055 24.5008 33.1627 24.658V24.5167C33.1627 23.64 33.869 22.9223 34.7404 22.8993C34.7766 22.8843 34.8128 22.8728 34.8498 22.8675C37.1851 22.532 41.2666 21.5379 43.3793 18.6112Z" fill="url(#paint24_linear_1160_1653)"/>
</g>
</g>
<path id="Vector_31" d="M43.8155 8.45806C43.8155 8.45806 45.9079 8.27266 46.9709 8.72822C48.0339 9.18379 48.6077 10.0949 48.9282 11.5799C49.2487 13.0649 48.0833 9.86008 46.9205 9.4204C45.4038 8.84653 43.7024 9.38685 43.5674 9.01604C43.4323 8.64523 43.8163 8.45895 43.8163 8.45895L43.8155 8.45806Z" fill="white"/>
<path id="Vector_32" d="M42.4833 5.99485C43.7387 6.12375 43.4112 6.88921 43.0907 7.15937C42.7702 7.42953 41.3355 5.87743 42.4833 5.99485Z" fill="white"/>
</g>
<path id="Vector_33" d="M25.0005 28.6186C33.5979 28.6186 40.5674 20.1209 40.5674 9.63937V5.33092H9.43353V9.63937C9.43353 20.1218 16.403 28.6186 25.0005 28.6186Z" fill="url(#paint25_radial_1160_1653)"/>
<path id="Vector_34" style="mix-blend-mode:multiply" d="M9.43353 5.33092V6.52722C13.8506 6.51133 29.1164 6.46453 34.766 6.53163C39.5918 6.58902 39.3499 8.66114 39.3499 8.66114C39.3499 19.1436 32.3831 27.3031 23.7856 27.3031C20.112 27.3031 16.7367 25.751 14.0739 23.1563C16.8842 26.5342 20.7423 28.6186 25.0005 28.6186C33.5979 28.6186 40.5674 20.1209 40.5674 9.63937V5.33092H9.43353Z" fill="url(#paint26_radial_1160_1653)"/>
<path id="Vector_35" d="M41.3619 0.332962H8.63798C7.74716 0.332962 7.90873 1.06222 7.90873 1.95304V2.09254C7.90873 2.98337 8.63798 5.62406 9.52881 5.62406H40.4711C41.3619 5.62406 42.0912 2.98337 42.0912 2.09254V1.95304C42.0912 1.06222 42.2536 0.332962 41.3619 0.332962Z" fill="url(#paint27_radial_1160_1653)"/>
<path id="Vector_36" style="mix-blend-mode:multiply" d="M41.3619 0.332962H41.1942C41.1907 0.468043 41.1862 0.609301 41.1862 0.754976V0.894472C41.1862 1.7853 40.457 4.42599 39.5662 4.42599H8.62478C8.5718 4.42599 8.51971 4.41628 8.46851 4.39862C8.75368 5.07756 9.12448 5.62406 9.52973 5.62406H40.4711C41.3619 5.62406 42.0912 2.98337 42.0912 2.09254V1.95304C42.0912 1.06222 42.2536 0.332962 41.3619 0.332962Z" fill="url(#paint28_radial_1160_1653)"/>
<g id="Group_16">
<g id="Vector_37" style="mix-blend-mode:overlay">
<path d="M10.7773 7.19026C9.53065 7.55489 10.6961 15.3189 12.2517 18.379C14.3441 22.4959 18.6402 27.0701 23.3221 24.9255C30.4761 21.6483 29.029 11.9693 27.8142 8.93042C26.6806 6.09549 12.1608 6.7859 10.7773 7.19026Z" fill="#DBDBDB"/>
</g>
</g>
<g id="Group_17">
<path id="Vector_38" d="M25.2856 8.42099C27.6835 9.01959 18.9792 25.5789 14.6328 19.8199C12.1192 16.4887 5.71307 3.5369 25.2856 8.42099Z" fill="white"/>
</g>
<g id="Group_18">
<path id="Vector_39" style="mix-blend-mode:overlay" d="M10.0815 4.30765C10.0815 4.30765 8.81635 4.8409 8.4782 3.49451C8.14094 2.14812 8.4782 0.744339 9.69304 0.744339H39.929C39.929 0.744339 44.9235 1.38531 33.8213 1.28466C22.719 1.18313 13.0003 1.58838 12.1907 2.39798C11.3811 3.20758 10.7878 3.92536 10.0815 4.30765Z" fill="url(#paint29_linear_1160_1653)"/>
</g>
<path id="Vector_40" d="M10.5097 1.0481C9.50234 0.482173 8.25748 2.26383 9.05207 3.44689C9.8087 4.57521 11.4111 1.55399 10.5097 1.0481Z" fill="white"/>
<path id="Vector_41" d="M14.3503 1.15051C12.7611 1.15051 11.5383 1.58842 12.7302 1.75705C13.9229 1.92568 19.1258 1.15051 14.3503 1.15051Z" fill="white"/>
<g id="Group_19">
<path id="Vector_42" style="mix-blend-mode:multiply" d="M36.6915 40.112V39.9725C36.6915 39.0817 35.9623 38.3524 35.0715 38.3524H34.6698C34.668 38.2774 34.6671 38.2014 34.6671 38.1229V37.9834C34.6671 37.0925 33.9378 36.3633 33.047 36.3633H32.9252C32.0979 36.1567 29.4246 35.295 28.4605 32.6287C27.3127 29.4565 28.1294 28.232 28.1294 28.232L27.7047 28.3317L26.9163 28.4748L26.1782 28.6169H25.4189C25.4189 28.6169 26.1597 29.9492 26.1597 32.1793C26.1597 35.5872 24.9996 36.3642 24.9996 36.3642C25.0102 36.3642 25.0199 36.3624 25.0305 36.3624H28.9593C29.4237 36.3624 29.8042 36.7429 29.8042 37.2073C29.8042 37.6717 29.4237 38.0522 28.9593 38.0522H25.0305C25.0199 38.0522 25.0093 38.0514 24.9996 38.0505V38.3515H30.0073C30.8981 38.3515 31.6273 39.0808 31.6273 39.9716V40.1111C31.6273 41.0019 30.8981 41.7312 30.0073 41.7312H35.9623C36.8531 41.7312 36.6915 41.0019 36.6915 40.1111V40.112Z" fill="url(#paint30_linear_1160_1653)"/>
</g>
<g id="Group_20">
<path id="Vector_43" style="mix-blend-mode:multiply" d="M41.3619 0.332961H25.0004C25.0004 0.332961 26.4598 0.769103 26.4598 2.31856C26.4598 3.51927 25.7552 4.84271 25.4374 5.37774C25.4347 5.38303 25.4312 5.38833 25.4286 5.39275C25.4188 5.40864 25.4109 5.42276 25.4021 5.43689C25.3994 5.4413 25.3959 5.4466 25.3932 5.4519C25.3844 5.46691 25.3765 5.48015 25.3685 5.49251C25.3668 5.49516 25.3641 5.49957 25.3623 5.50222C25.3138 5.57991 25.2855 5.62318 25.2855 5.62318C25.2855 5.62318 30.3789 6.90777 30.3789 14.3981C30.3789 21.8885 25.2926 28.6054 25.2855 28.6143C33.7515 28.4288 40.5673 20.0053 40.5673 9.63939V5.61258C41.414 5.43424 42.0911 2.9507 42.0911 2.09166V1.95216C42.0911 1.06133 42.2527 0.332077 41.3619 0.332077V0.332961Z" fill="url(#paint31_linear_1160_1653)"/>
</g>
</g>
</g>
<defs>
<radialGradient id="paint0_radial_1160_1653" cx="0" cy="0" r="1" gradientUnits="userSpaceOnUse" gradientTransform="translate(17.1163 26.5439) scale(26.7248 26.7248)">
<stop offset="0.25" stop-color="#D3D3D3"/>
<stop offset="1" stop-color="#999999"/>
</radialGradient>
<radialGradient id="paint1_radial_1160_1653" cx="0" cy="0" r="1" gradientUnits="userSpaceOnUse" gradientTransform="translate(27.235 28.254) scale(9.52715 9.52716)">
<stop offset="0.25" stop-color="#D3D3D3"/>
<stop offset="1" stop-color="#999999"/>
</radialGradient>
<linearGradient id="paint2_linear_1160_1653" x1="21.0548" y1="31.1172" x2="24.5643" y2="34.8067" gradientUnits="userSpaceOnUse">
<stop stop-color="white"/>
<stop offset="1" stop-color="white"/>
</linearGradient>
<linearGradient id="paint3_linear_1160_1653" x1="24.318" y1="33.8118" x2="25.4428" y2="41.5052" gradientUnits="userSpaceOnUse">
<stop offset="0.25" stop-color="#D3D3D3"/>
<stop offset="1" stop-color="#999999"/>
</linearGradient>
<linearGradient id="paint4_linear_1160_1653" x1="20.4094" y1="36.4701" x2="21.1696" y2="39.4198" gradientUnits="userSpaceOnUse">
<stop stop-color="white"/>
<stop offset="1" stop-color="white"/>
</linearGradient>
<radialGradient id="paint5_radial_1160_1653" cx="0" cy="0" r="1" gradientUnits="userSpaceOnUse" gradientTransform="translate(25.0004 38.0531) scale(6.94738 6.94738)">
<stop offset="0.25" stop-color="#D3D3D3"/>
<stop offset="1" stop-color="#999999"/>
</radialGradient>
<linearGradient id="paint6_linear_1160_1653" x1="24.6208" y1="31.586" x2="25.1603" y2="44.3189" gradientUnits="userSpaceOnUse">
<stop offset="0.25" stop-color="#D3D3D3"/>
<stop offset="1" stop-color="#999999"/>
</linearGradient>
<linearGradient id="paint7_linear_1160_1653" x1="19.0825" y1="38.8857" x2="20.1235" y2="42.9284" gradientUnits="userSpaceOnUse">
<stop stop-color="white"/>
<stop offset="1" stop-color="white"/>
</linearGradient>
<radialGradient id="paint8_radial_1160_1653" cx="0" cy="0" r="1" gradientUnits="userSpaceOnUse" gradientTransform="translate(25.0005 40.0423) scale(8.35998 8.36)">
<stop offset="0.25" stop-color="#D3D3D3"/>
<stop offset="1" stop-color="#999999"/>
</radialGradient>
<linearGradient id="paint9_linear_1160_1653" x1="6.29131" y1="9.24473" x2="11.488" y2="33.946" gradientUnits="userSpaceOnUse">
<stop stop-color="#D3D3D3"/>
<stop offset="1" stop-color="#8E8E8E"/>
</linearGradient>
<linearGradient id="paint10_linear_1160_1653" x1="7.77016" y1="8.93397" x2="12.9668" y2="33.6352" gradientUnits="userSpaceOnUse">
<stop stop-color="#D3D3D3"/>
<stop offset="1" stop-color="#8E8E8E"/>
</linearGradient>
<linearGradient id="paint11_linear_1160_1653" x1="11.1755" y1="7.09137" x2="16.6829" y2="33.2697" gradientUnits="userSpaceOnUse">
<stop stop-color="#D3D3D3"/>
<stop offset="1" stop-color="#8E8E8E"/>
</linearGradient>
<radialGradient id="paint12_radial_1160_1653" cx="0" cy="0" r="1" gradientUnits="userSpaceOnUse" gradientTransform="translate(15.5245 26.2092) scale(2.52592 2.52592)">
<stop offset="0.25" stop-color="#D3D3D3"/>
<stop offset="1" stop-color="#999999"/>
</radialGradient>
<radialGradient id="paint13_radial_1160_1653" cx="0" cy="0" r="1" gradientUnits="userSpaceOnUse" gradientTransform="translate(7.02589 11.271) scale(2.0059 2.0059)">
<stop offset="0.25" stop-color="#D3D3D3"/>
<stop offset="1" stop-color="#999999"/>
</radialGradient>
<radialGradient id="paint14_radial_1160_1653" cx="0" cy="0" r="1" gradientUnits="userSpaceOnUse" gradientTransform="translate(7.02766 19.7386) scale(6.73372 6.73372)">
<stop offset="0.25" stop-color="#D3D3D3"/>
<stop offset="1" stop-color="#999999"/>
</radialGradient>
<linearGradient id="paint15_linear_1160_1653" x1="-12.6155" y1="-25.018" x2="4.25719" y2="9.88219" gradientUnits="userSpaceOnUse">
<stop stop-color="white"/>
<stop offset="1" stop-color="white"/>
</linearGradient>
<linearGradient id="paint16_linear_1160_1653" x1="-8.29031" y1="-19.8127" x2="10.2369" y2="18.5096" gradientUnits="userSpaceOnUse">
<stop stop-color="white"/>
<stop offset="1" stop-color="white"/>
</linearGradient>
<linearGradient id="paint17_linear_1160_1653" x1="43.7086" y1="9.24473" x2="38.512" y2="33.946" gradientUnits="userSpaceOnUse">
<stop stop-color="#D3D3D3"/>
<stop offset="1" stop-color="#8E8E8E"/>
</linearGradient>
<linearGradient id="paint18_linear_1160_1653" x1="42.2289" y1="8.93393" x2="36.7012" y2="35.2111" gradientUnits="userSpaceOnUse">
<stop stop-color="#D3D3D3"/>
<stop offset="1" stop-color="#8E8E8E"/>
</linearGradient>
<linearGradient id="paint19_linear_1160_1653" x1="38.8245" y1="7.09134" x2="33.3171" y2="33.2696" gradientUnits="userSpaceOnUse">
<stop stop-color="#D3D3D3"/>
<stop offset="1" stop-color="#8E8E8E"/>
</linearGradient>
<radialGradient id="paint20_radial_1160_1653" cx="0" cy="0" r="1" gradientUnits="userSpaceOnUse" gradientTransform="translate(34.4755 26.2092) rotate(180) scale(2.52591 2.52592)">
<stop offset="0.25" stop-color="#D3D3D3"/>
<stop offset="1" stop-color="#999999"/>
</radialGradient>
<radialGradient id="paint21_radial_1160_1653" cx="0" cy="0" r="1" gradientUnits="userSpaceOnUse" gradientTransform="translate(42.974 11.271) rotate(180) scale(2.0059 2.0059)">
<stop offset="0.25" stop-color="#D3D3D3"/>
<stop offset="1" stop-color="#999999"/>
</radialGradient>
<radialGradient id="paint22_radial_1160_1653" cx="0" cy="0" r="1" gradientUnits="userSpaceOnUse" gradientTransform="translate(42.9723 19.7386) rotate(180) scale(6.73372 6.73372)">
<stop offset="0.25" stop-color="#D3D3D3"/>
<stop offset="1" stop-color="#999999"/>
</radialGradient>
<linearGradient id="paint23_linear_1160_1653" x1="62.6156" y1="-25.0181" x2="45.742" y2="9.88216" gradientUnits="userSpaceOnUse">
<stop stop-color="white"/>
<stop offset="1" stop-color="white"/>
</linearGradient>
<linearGradient id="paint24_linear_1160_1653" x1="58.2903" y1="-19.8127" x2="39.763" y2="18.5096" gradientUnits="userSpaceOnUse">
<stop stop-color="white"/>
<stop offset="1" stop-color="white"/>
</linearGradient>
<radialGradient id="paint25_radial_1160_1653" cx="0" cy="0" r="1" gradientUnits="userSpaceOnUse" gradientTransform="translate(24.642 7.78356) scale(24.6226 24.6226)">
<stop offset="0.25" stop-color="#D3D3D3"/>
<stop offset="1" stop-color="#999999"/>
</radialGradient>
<radialGradient id="paint26_radial_1160_1653" cx="0" cy="0" r="1" gradientUnits="userSpaceOnUse" gradientTransform="translate(17.24 17.1191) scale(24.0593 24.0594)">
<stop offset="0.25" stop-color="#D3D3D3"/>
<stop offset="1" stop-color="#999999"/>
</radialGradient>
<radialGradient id="paint27_radial_1160_1653" cx="0" cy="0" r="1" gradientUnits="userSpaceOnUse" gradientTransform="translate(7.09471 2.58695) scale(41.8529 41.8529)">
<stop stop-color="#B1B1B1"/>
<stop offset="0.25" stop-color="#D3D3D3"/>
<stop offset="1" stop-color="#999999"/>
</radialGradient>
<radialGradient id="paint28_radial_1160_1653" cx="0" cy="0" r="1" gradientUnits="userSpaceOnUse" gradientTransform="translate(9.66304 -0.0484397) scale(44.5218 44.5219)">
<stop offset="0.25" stop-color="#D3D3D3"/>
<stop offset="1" stop-color="#999999"/>
</radialGradient>
<linearGradient id="paint29_linear_1160_1653" x1="8.3546" y1="2.57808" x2="41.0485" y2="2.57808" gradientUnits="userSpaceOnUse">
<stop stop-color="white"/>
<stop offset="1" stop-color="white"/>
</linearGradient>
<linearGradient id="paint30_linear_1160_1653" x1="13.1699" y1="34.6911" x2="37.4393" y2="35.1352" gradientUnits="userSpaceOnUse">
<stop offset="0.25" stop-color="#D3D3D3"/>
<stop offset="1" stop-color="#999999"/>
</linearGradient>
<linearGradient id="paint31_linear_1160_1653" x1="7.51671" y1="14.0017" x2="42.7807" y2="14.6462" gradientUnits="userSpaceOnUse">
<stop offset="0.25" stop-color="#D3D3D3"/>
<stop offset="1" stop-color="#999999"/>
</linearGradient>
</defs>
</svg>
