<svg width="56" height="57" viewBox="0 0 56 57" fill="none" xmlns="http://www.w3.org/2000/svg">
<g id="Group 18">
<g id="Group 33">
<path id="Vector" d="M26.0608 38.9732C26.0349 34.8662 24.53 30.8353 21.0355 27.3408C17.5404 23.8463 15.9115 19.1715 15.7299 16.7038C15.551 14.28 15.9336 12.6479 16.444 11.6018C16.9542 10.5559 17.6683 10.071 18.0003 10.3263C18.3316 10.5812 18.4083 11.5765 17.2605 13.1581C16.6541 13.993 16.393 14.3824 16.5459 14.5608C16.6989 14.7397 18.4595 14.3312 19.0969 11.8314C19.735 9.33162 18.6889 7.97966 17.2093 8.28574C15.7297 8.59181 13.4595 10.8879 13.7912 17.0099C14.1226 23.1318 18.1275 27.9789 18.9438 28.744C19.76 29.5093 22.2858 32.4428 22.9744 34.8912C23.7463 37.6375 23.8005 40.5649 23.2293 40.7077C22.9232 40.7838 23.204 39.8148 22.7191 37.7483C22.2346 35.6822 21.8773 32.3914 18.5612 30.096C18.5612 30.8098 18.663 31.6011 19.3775 32.9783C20.0914 34.3555 20.551 36.0395 20.7807 38.59C21.0103 41.141 21.4436 42.6206 22.8467 43.1563C24.2499 43.692 26.0863 43.0799 26.0611 38.9732H26.0608Z" fill="white"/>
<path id="Vector_2" d="M35.6029 23.4107C34.7866 23.4107 34.3326 23.5921 34.832 22.1859C35.3309 20.7791 36.7827 13.6557 30.7031 11.569C24.6229 9.48175 21.2199 13.2022 19.5867 16.5598C17.9535 19.9172 18.9512 22.5034 20.2222 23.6377C20.8117 17.6942 21.8554 16.7413 22.5359 15.834C24.0992 13.7493 27.9352 12.2039 31.0205 14.6996C34.1055 17.1947 32.3819 20.9608 31.7918 22.549C31.202 24.1368 30.4915 25.9064 34.1509 25.7704C39.6391 25.5663 40.3215 30.1257 38.5523 34.0732C36.7824 38.0207 30.4761 41.0153 28.2978 42.1494C26.1201 43.2838 23.9874 44.5091 22.8535 46.6868C21.7192 48.8645 22.4451 49.6814 22.7171 49.7724C22.9895 49.8628 23.7154 50.0444 24.0785 49.1369C24.4415 48.2296 24.9404 47.0952 26.3015 45.371C27.6629 43.6468 34.3777 40.5184 37.1455 38.8374C39.2445 37.5623 43.3617 33.4838 41.9553 28.6739C40.5485 23.8648 36.4196 23.4107 35.6027 23.4107H35.6029Z" fill="white"/>
<path id="Vector (Stroke)" fill-rule="evenodd" clip-rule="evenodd" d="M28.0001 2.21345C13.4824 2.21345 1.71351 13.9823 1.71351 28.5C1.71351 43.0177 13.4824 54.7865 28.0001 54.7865C42.5177 54.7865 54.2866 43.0177 54.2866 28.5C54.2866 13.9823 42.5177 2.21345 28.0001 2.21345ZM0 28.5C0 13.036 12.5361 0.499939 28.0001 0.499939C43.4641 0.499939 56.0001 13.036 56.0001 28.5C56.0001 43.964 43.4641 56.5001 28.0001 56.5001C12.5361 56.5001 0 43.964 0 28.5Z" fill="white"/>
</g>
</g>
</svg>
