<svg width="92" height="80" viewBox="0 0 92 80" fill="none" xmlns="http://www.w3.org/2000/svg">
<g id="OBJECTS">
<g id="Group">
<path id="Vector" d="M18.5353 51.3538C19.2378 50.5138 19.9361 49.6738 20.6386 48.8337C20.7123 48.7484 20.7861 48.6765 20.8728 48.6226C21.2111 48.425 21.5407 48.5373 22.1001 48.7529C22.5424 48.9236 23.0412 49.1167 23.5833 49.0583L21.4799 51.5784C20.9378 51.6368 20.4391 51.4437 19.9968 51.273C19.4417 51.0573 19.1077 50.945 18.7695 51.1427C18.6827 51.1921 18.6047 51.264 18.5353 51.3538Z" fill="#E36060"/>
<path id="Vector_2" d="M20.6386 48.8337C20.5562 48.9326 20.4782 49.0539 20.3958 49.1751C20.3047 49.3144 20.2136 49.4581 20.1009 49.5929C19.3983 50.4329 18.7001 51.273 17.9976 52.113C18.1103 51.9782 18.2057 51.8345 18.2925 51.6952C18.3749 51.5739 18.4486 51.4526 18.5353 51.3538C19.2379 50.5138 19.9361 49.6738 20.6386 48.8337Z" fill="#FFA1A1"/>
<path id="Vector_3" d="M20.1008 49.5929C19.3983 50.4329 18.7001 51.2729 17.9975 52.113C17.8197 52.3286 17.5942 52.5173 17.2646 52.6206C16.523 52.8452 15.7381 52.5577 15.0615 52.2477C14.9618 52.2028 14.8577 52.1534 14.7536 52.0995C14.3156 51.8884 13.7692 51.6233 13.522 51.7267C13.4873 51.7401 13.4526 51.7671 13.4222 51.803L15.5256 49.2829C15.5559 49.247 15.5906 49.2201 15.6253 49.2066C15.8725 49.1078 16.4189 49.3683 16.857 49.5794C16.961 49.6288 17.0651 49.6782 17.1649 49.7277C17.8371 50.0376 18.6264 50.3251 19.3679 50.1005C19.6975 50.0017 19.923 49.8085 20.1008 49.5974V49.5929Z" fill="#E36060"/>
<path id="Vector_4" d="M15.5256 49.2829C15.4692 49.3503 15.4258 49.4492 15.3911 49.5839C15.3911 49.5974 15.3868 49.6109 15.3825 49.6333C15.3694 49.813 15.4345 50.2487 15.4822 50.5767C15.5603 51.1202 15.6427 51.6727 15.608 52.122C15.5863 52.4139 15.5169 52.6655 15.3694 52.8407L13.2661 55.3608C13.4136 55.1856 13.483 54.934 13.5046 54.642C13.535 54.1928 13.4569 53.6403 13.3789 53.0967C13.3312 52.7688 13.2661 52.3331 13.2791 52.1534C13.2791 52.1354 13.2791 52.1175 13.2878 52.104C13.3225 51.9692 13.3659 51.8659 13.4179 51.803C14.0467 51.0483 14.8881 50.0376 15.5212 49.2829H15.5256Z" fill="#FFA1A1"/>
<path id="Vector_5" d="M15.3738 52.8362L13.2705 55.3563C13.2184 55.4192 13.1534 55.4731 13.0797 55.518C12.7544 55.7067 12.3164 55.6258 11.7786 55.2754C11.6095 55.1676 11.3927 54.9655 11.0934 54.687C10.7595 54.3815 10.3475 53.9952 9.97021 53.7211C9.48883 53.3708 9.33271 53.3977 9.32837 53.3977L11.4317 50.8776C11.4317 50.8776 11.5922 50.8507 12.0735 51.2011C12.4508 51.4751 12.8672 51.8569 13.1968 52.1669C13.496 52.4454 13.7128 52.643 13.882 52.7553C14.4197 53.1012 14.8577 53.1821 15.183 52.9979C15.2567 52.953 15.3218 52.8991 15.3738 52.8362Z" fill="#E36060"/>
<path id="Vector_6" d="M9.33704 53.4067L11.449 50.8911C10.8245 51.6503 9.96153 52.652 9.33704 53.4067Z" fill="#90C5FF"/>
<path id="Vector_7" d="M11.4274 50.8821L9.32404 53.4022C9.32404 53.4022 9.32404 53.4022 9.31537 53.4112L11.4187 50.8911C11.4187 50.8911 11.423 50.8821 11.4274 50.8821Z" fill="#90C5FF"/>
<path id="Vector_8" d="M11.4187 50.8911C11.4187 50.8911 11.4057 50.9046 11.4014 50.9226C11.358 51.0034 11.3363 51.1292 11.3276 51.273C11.3146 51.4796 11.319 51.7267 11.3276 51.9558C11.3363 52.2208 11.345 52.4993 11.3276 52.7688C11.3016 53.1462 11.2192 53.501 11.0024 53.7616C10.2998 54.6016 9.6016 55.4416 8.89905 56.2817C9.11589 56.0211 9.19828 55.6662 9.2243 55.2889C9.24599 55.0239 9.23732 54.7409 9.2243 54.4758C9.21563 54.2467 9.21129 53.9997 9.2243 53.793C9.23732 53.6448 9.25466 53.5235 9.29803 53.4426C9.3067 53.4292 9.31104 53.4157 9.31538 53.4112C9.94854 52.6565 10.7855 51.6458 11.4187 50.8911Z" fill="#FFA1A1"/>
<path id="Vector_9" d="M10.998 53.7571C10.2955 54.5971 9.59725 55.4371 8.89469 56.2772C8.84265 56.3401 8.78194 56.3985 8.71255 56.4479C8.37428 56.6949 7.97096 56.7354 7.5503 56.5602C6.38804 56.084 5.51202 54.1704 5.3559 53.7212L7.45922 51.2011C7.61101 51.6503 8.48704 53.5639 9.65362 54.0401C10.0786 54.2108 10.4819 54.1749 10.8159 53.9278C10.8853 53.8784 10.9416 53.82 10.998 53.7571Z" fill="#E36060"/>
</g>
<path id="Vector_10" d="M30.8387 62.1349L32.8336 63.8823L29.4509 67.9701L28.3754 66.8696L30.8387 62.1349Z" fill="#ADDCC1"/>
<path id="Vector_11" d="M73.1462 65.1429L75.1411 66.8903L71.7584 70.9781L70.6829 69.8775L73.1462 65.1429Z" fill="#ADDCC1"/>
<path id="Vector_12" d="M14.8707 65.5399L13.986 62.9929L18.8866 61.205L19.2899 62.7144L14.8707 65.5399Z" fill="#ADDCC1"/>
<path id="Vector_13" d="M13.6868 29.4593L11.9998 29.5671L11.8177 26.0812L12.7978 26.0947L13.6868 29.4593Z" fill="#E36060"/>
<path id="Vector_14" d="M62.9264 0.435735L62.1848 2.85698L57.4447 1.3656L57.9781 0L62.9264 0.435735Z" fill="#E36060"/>
<path id="Vector_15" d="M9.24161 68.9314L6.2796 69.0482L6.96047 63.6847L8.65615 63.7341L9.24161 68.9314Z" fill="#F6D45E"/>
<path id="Vector_16" d="M78.9724 59.3857L76.9905 61.1466L73.6295 57.0408L74.8481 56.111L78.9724 59.3857Z" fill="#ADDCC1"/>
<path id="Vector_17" d="M91.1153 18.4446L92 20.9916L87.0995 22.7795L86.6962 21.2701L91.1153 18.4446Z" fill="#4B6785"/>
<path id="Vector_18" d="M32 48.4762L34.3115 48L33.8735 51.8587L32.5464 52.0474L32 48.4762Z" fill="#E36060"/>
<path id="Vector_19" d="M83.2701 35.7123L85.33 35.8111L86.0326 40.703L84.827 40.5323L83.2701 35.7123Z" fill="#E36060"/>
<path id="Vector_20" d="M47.1492 10.9428L47.7997 7.94655L52.6309 10.0129L52.1452 11.6975L47.1492 10.9428Z" fill="#4B6785"/>
<path id="Vector_21" d="M80.9169 45.6612L79.4424 43.4286L75.1707 46.4967L76.1161 47.7185L80.9169 45.6612Z" fill="#4B6785"/>
<path id="Vector_22" d="M19.2162 40.4739L20.708 38.2503L16.4146 35.2092L15.6514 36.5613L19.2162 40.4739Z" fill="#4B6785"/>
<path id="Vector_23" d="M76.9818 17.4429L79.0982 18.521L79.6316 14.6802L78.3999 14.1412L76.9818 17.4429Z" fill="#F6D45E"/>
<path id="Vector_24" d="M24.3119 17.1239L24.1948 20.192L29.3772 19.4913L29.3295 17.7304L24.3119 17.1239Z" fill="#F6D45E"/>
<path id="Vector_25" d="M27.9547 9.9635L29.9366 9.28969L28.2193 5.92509L27.1134 6.38778L27.9547 9.9635Z" fill="#F6D45E"/>
<path id="Vector_26" d="M40.8413 71.0384L42.8232 70.3646L41.1059 67L40 67.4627L40.8413 71.0384Z" fill="#F6D45E"/>
<path id="Vector_27" d="M40.3579 6.8325L42.7171 5.67802L40.4707 0.822052L39.1523 1.59919L40.3579 6.8325Z" fill="#4B6785"/>
<path id="Vector_28" d="M82.4288 55.8235L80.8242 55.2709L79.7791 58.5906L80.7288 58.8377L82.4288 55.8235Z" fill="#E36060"/>
<path id="Vector_29" d="M57.6498 68.5525L56.0452 68L55 71.3197L55.9497 71.5667L57.6498 68.5525Z" fill="#E36060"/>
<path id="Vector_30" d="M78.2481 6.3743L76.6739 6.01942L75.1907 9.5637L76.1318 9.68948L78.2481 6.3743Z" fill="#E36060"/>
<path id="Vector_31" d="M33.1328 57.4092L33.0201 54.8711L28.0675 55.0418L28.2453 56.5063L33.1328 57.4092Z" fill="#E36060"/>
<path id="Vector_32" d="M3.51277 38.5962L0.680871 37.6888L0 43.0569L1.65231 43.4612L3.51277 38.5962Z" fill="#ADDCC1"/>
<path id="Vector_33" d="M64.5526 10.6643L61.7207 9.75687L61.0399 15.1249L62.6922 15.5292L64.5526 10.6643Z" fill="#F6D45E"/>
</g>
</svg>
